<svg xmlns="http://www.w3.org/2000/svg" width="18" height="18" viewBox="0 0 18 18">
  <defs>
    <style>
      .cls-1 {
        fill: #4075e5;
        fill-rule: evenodd;
      }
    </style>
  </defs>
  <path id="Forme_825" data-name="Forme 825" class="cls-1" d="M1583.98,416.724a3.267,3.267,0,1,0,3.26,3.267A3.267,3.267,0,0,0,1583.98,416.724Zm7.99,2.276h-0.93a7.027,7.027,0,0,0-6.09-6.092V411.99a1.014,1.014,0,0,0-.29-0.7,1,1,0,0,0-.7-0.293,0.986,0.986,0,0,0-.99.99v0.936a7.03,7.03,0,0,0-6.08,6.092h-0.9a0.96,0.96,0,0,0-.99.973,0.986,0.986,0,0,0,.99.99h0.93a7.027,7.027,0,0,0,6.09,6.092v0.936a1,1,0,0,0,.99.991,0.987,0.987,0,0,0,.99-0.991v-0.936a7.028,7.028,0,0,0,6.09-6.092h0.93a1,1,0,0,0,.99-0.99A1.048,1.048,0,0,0,1591.97,419Zm-7.99,6.293a5.3,5.3,0,1,1,5.3-5.3A5.308,5.308,0,0,1,1583.98,425.293Z" transform="translate(-1575 -411)"/>
</svg>
