<?xml version="1.0" encoding="utf-8"?>
<!-- Generator: Adobe Illustrator 23.0.4, SVG Export Plug-In . SVG Version: 6.00 Build 0)  -->
<svg version="1.1" id="Calque_1" xmlns="http://www.w3.org/2000/svg" xmlns:xlink="http://www.w3.org/1999/xlink" x="0px" y="0px"
	 viewBox="0 0 25 25" style="enable-background:new 0 0 25 25;" xml:space="preserve">
<style type="text/css">
	.st0{fill:#313131;}
</style>
<g>
	<g>
		<path class="st0" d="M17.9,15.5c-1,0-1.9,0.5-2.5,1.2l-5.3-3.2c0.1-0.3,0.2-0.7,0.2-1.1c0-0.3,0-0.6-0.1-0.8l5.5-3.3
			c0.6,0.7,1.5,1.1,2.5,1.1c1.9,0,3.4-1.6,3.4-3.5c0-1.9-1.5-3.5-3.4-3.5c-1.9,0-3.4,1.6-3.4,3.5c0,0.2,0,0.4,0.1,0.6L9.2,10
			C8.6,9.4,7.8,9,6.9,9C5,9,3.5,10.6,3.5,12.5C3.5,14.4,5,16,6.9,16c0.8,0,1.5-0.3,2.1-0.8l5.5,3.4c0,0.2,0,0.3,0,0.5
			c0,1.9,1.5,3.5,3.4,3.5c1.9,0,3.4-1.6,3.4-3.5C21.3,17.1,19.8,15.5,17.9,15.5z"/>
	</g>
</g>
</svg>
