<svg xmlns="http://www.w3.org/2000/svg" width="1009" height="921" viewBox="0 0 1009 921">
  <defs>
    <style>
      .cls-1 {
        fill: #25241f;
        fill-rule: evenodd;
        opacity: 0.03;
      }
    </style>
  </defs>
  <path id="Forme_11_copie_7" data-name="Forme 11 copie 7" class="cls-1" d="M412.248,159.566c-54.946,45.4-76.107,88.728-94.777,126.963-8.289,16.969-16.114,33-26.226,48.008-17.769,26.748-23.481,56.472-27.653,78.176-0.765,3.993-1.489,7.764-2.218,11.117-10.352,43.721-21.819,77.943-31.033,105.439-24.668,73.616-35.925,107.215,19.745,177.548,6.279,7.85,15.6,17.3,25.463,27.308,22.73,23.053,51.018,51.744,57.99,77.349C363.655,928.421,456.028,990,615.932,999.739c61.739,1.491,110.023,12.611,152.621,22.411,82.931,19.1,142.852,32.89,241.057-32.535,27.5-18.4,48.49-73.9,68.8-127.583,10.85-28.689,22.08-58.355,33.97-81.143,17.69-34.832,34.86-63.557,50.01-88.9,45.86-76.734,73.55-123.051,45.06-218.562-11.7-40.707-44.62-70.134-79.46-101.29-17.59-15.721-35.77-31.977-51.3-49.989-21.15-22.084-37.56-47.225-52.04-69.407-23.34-35.745-43.477-66.62-75.535-75.612-26.74-7.171-30.114-12.054-33.1-16.363-6.065-8.757-10.059-14.542-232.2-33.186-14.094-1.126-28.724-2.708-42.87-4.239C563.013,114.911,482.427,106.2,412.248,159.566Z" transform="translate(-210 -117)"/>
</svg>
