<?xml version="1.0" encoding="utf-8"?>
<!-- Generator: Adobe Illustrator 23.0.4, SVG Export Plug-In . SVG Version: 6.00 Build 0)  -->
<svg version="1.1"
	 id="svg2" xmlns:cc="http://web.resource.org/cc/" xmlns:dc="http://purl.org/dc/elements/1.1/" xmlns:inkscape="http://www.inkscape.org/namespaces/inkscape" xmlns:rdf="http://www.w3.org/1999/02/22-rdf-syntax-ns#" xmlns:sodipodi="http://sodipodi.sourceforge.net/DTD/sodipodi-0.dtd" xmlns:svg="http://www.w3.org/2000/svg"
	 xmlns="http://www.w3.org/2000/svg" xmlns:xlink="http://www.w3.org/1999/xlink" x="0px" y="0px" viewBox="0 0 1510 1098.4"
	 style="enable-background:new 0 0 1510 1098.4;" xml:space="preserve">
<style type="text/css">
	.st0{fill:#FFFFFF;}
</style>
<sodipodi:namedview  bordercolor="#666666" borderopacity="1.0" gridtolerance="10.0" guidetolerance="10.0" height="1098.42px" id="base" inkscape:current-layer="svg2" inkscape:cx="755" inkscape:cy="549.21005" inkscape:pageopacity="0.0" inkscape:pageshadow="2" inkscape:window-height="712" inkscape:window-width="1024" inkscape:window-x="-4" inkscape:window-y="-4" inkscape:zoom="0.474082" objecttolerance="10.0" pagecolor="#ffffff" width="1510px">
	</sodipodi:namedview>
<path id="path2161" class="st0" d="M622,1092.5c-5.1-1.1-13.1-4.3-25.7-10.2c-5.8-2.7-12-5.4-13.9-6.1c-3.2-1.1-4.4-2-4.5-3.3
	c0-0.3,0.4-0.5,1-0.5c1.1,0,14.7-5.9,21.3-9.2c3.6-1.8,37.6-16.5,47.8-20.6c2-0.8,3.5-1.6,3.4-1.7c-0.8-0.8-7.5,1.5-13.6,4.6
	c-12.1,6.1-20,7.1-56.7,7c-24.7,0-27.8-0.2-28.7-1.1c-0.6-0.6-1-1.4-1-1.8c0-1.6,10-15.2,14.6-19.7c4.5-4.5,11.9-10.1,13.3-10.1
	c0.3,0,0.8-0.3,1-0.7c0.9-1.5-22.3-10.7-29.6-11.7c-2.4-0.3-4.3,0.1-12.4,2.8c-13.3,4.5-19.6,5.8-31.7,6.2l-10.2,0.3l-10.6-2.6
	c-5.8-1.4-16.7-3.6-24.1-4.9c-15.5-2.6-27.9-6.2-27.9-8c0-1.8,6-10.2,9.7-13.6c7.2-6.5,18.7-11.5,28.4-12.2c4.8-0.3,9.9-2.2,9.2-3.3
	c-0.6-0.9-11.8-9.1-15.9-11.6c-7.2-4.4-12.3-5.2-20.6-3.3c-2.4,0.5-8.9,1.1-15.3,1.3c-20.8,0.7-31.1-1.6-44.4-9.6
	c-10.5-6.4-32.5-11.8-48.1-11.8c-3.5,0-4-0.1-4-1.3c0-0.7,0.3-1.3,0.6-1.3c0.3,0,1.2-1.2,1.9-2.7c2-4.1,6.7-8.5,11.8-10.9
	c4.3-2.1,13.1-4.1,17.7-4.1c1.1,0,5.4-0.6,9.6-1.3c4.2-0.7,9.7-1.3,12.2-1.3c3.7,0,4.6-0.2,4.6-1c0-1.4-29.8-30.5-34.7-33.9
	l-4.1-2.9l-7.7-0.1c-10.4-0.1-14-0.6-22.3-3.2c-15.8-5-20.9-8.3-47.1-30.7c-3.1-2.6-6.5-5.6-7.5-6.6s-4.2-3.4-6.9-5.3
	c-2.8-1.9-6.2-4.6-7.6-6l-2.6-2.4l2.8-2.6c5.9-5.4,12.2-7.2,22.5-6.7c7.4,0.4,13.5,1.7,28.5,6.1c4.9,1.4,8.9,2.6,9.1,2.6
	s-4.3-6.8-9.9-15.1c-11.2-16.7-16.7-23.8-21.9-28.6c-3-2.7-4.2-3.4-8.8-4.6c-12.4-3.2-20.5-6.8-27.8-12.4c-10.2-7.8-14-12-23.2-25.9
	c-5.2-7.8-8.5-12-15.4-19.2c-9-9.4-12-13.8-12.3-17.6c-0.2-2.1-0.1-2.2,3-2.7c6.2-1.1,18-0.7,23.4,0.8c8.6,2.3,23.9,10.3,31.4,16.5
	c3,2.5,5.8,4.2,6.1,3.8c0.1-0.1-1.2-4.4-2.9-9.5c-5.5-16.3-6.2-27.6-2.1-33.7c2.9-4.3,9.9-6.7,14.7-4.9c3.4,1.3,8.1,6.7,10.9,12.6
	c5.3,11.4,7.3,16.2,7.6,18.6c0.2,1.4,0.6,2.4,1,2.3c0.4-0.1,1.4-2.5,2.4-5.3c3.4-10,9.6-21.2,15.9-28.9c3.4-4.1,15.8-13.4,16.7-12.6
	c0.4,0.4,0.6,2.7,0.5,5.2c-0.5,20.2-0.6,19.8,2.1,32.2c2.3,10.8,2.5,12.5,2.5,21.6l0,9.8l-3.5,9.8c-1.9,5.4-4.6,11.7-5.9,13.9
	c-2.7,4.5-5.4,11.1-5.4,13c0,1.6,4.6,10.7,8.7,17.3c8.7,13.9,15.9,24.3,16.3,23.3c0.2-0.5,0.4-5.7,0.4-11.6
	c0-20.5,2.9-32.1,9.7-39.9c2.8-3.2,11.3-8.5,13.6-8.5c0.8,0,1.4-0.3,1.4-0.6c0-0.3,0.5-0.6,1.2-0.6c1.1,0,1.2,0.7,1.5,7.1
	c0.5,10.9,2.6,17.9,11.1,36.7c12,26.7,13.1,36,7.1,58c-1.5,5.4-2.4,10.1-2.2,10.9c0.2,0.8,4.7,5.6,10,10.6c5.3,5,12.5,11.9,16,15.2
	c3.5,3.4,6.5,6.1,6.6,6c0.1-0.1-0.5-3.1-1.4-6.8c-5.6-23.2-5.4-37.6,0.5-47.5c2.4-4,4.9-5.8,8.3-5.8c2,0,2.9,0.5,5.3,3
	c1.6,1.6,3.7,4.6,4.7,6.5c1.1,2.1,3.7,5.4,6.4,8c11.7,11.5,21.2,23.8,26.7,34.7c5.8,11.6,7.1,18.2,7.1,35.3c0,8,0.2,10.8,0.9,12.2
	c1.4,2.7,6.1,6,20.6,14.2c7.2,4.1,13.6,8,14.3,8.6c0.7,0.7,1.5,1.2,1.7,1.2c0.5,0-1.4-5.7-3.5-10.2c-4.3-9.4-9.3-26.3-10.6-35.5
	c-1.2-8.7,1-14,6-14c1.1,0,2.7,0.5,3.6,1.1c0.9,0.6,7.5,6.8,14.6,13.7c9.2,9,15.8,14.7,22.8,20c12.4,9.3,18.8,15.7,21.9,21.9
	c2.8,5.8,5.2,14.9,6.1,23.8c0.4,3.9,1.1,7.5,1.6,8.3c1.7,2.5,4.5,3.7,15.5,6.4c5.9,1.4,11.7,3.1,13,3.7c1.2,0.6,2.4,0.9,2.6,0.7
	c0.9-0.9-9.4-25.3-13.2-31.2c-4.5-7-6.2-14.9-4-18c1.1-1.6,4.7-3.4,6.7-3.4c0.9,0,3.3,1.8,6.6,4.9c2.8,2.7,6.4,5.8,8,6.8
	c1.6,1,3,2.1,3.2,2.2c0.7,0.7,4.1,2.7,12.8,7.3c21.7,11.6,29.7,19,38.7,36c2.2,4.1,4.7,8.1,5.7,9c3.2,2.7,18.5,7.7,41,13.4
	c21.4,5.4,21.4,5.4,33.6,3c9.9-2,22.3-5.1,46.4-11.6c21.1-5.7,21.8-6.1,30.2-18.4c7.7-11.3,20.1-22.3,33.3-29.5
	c7-3.8,12.3-7.7,16.3-11.8c4.5-4.6,13.5-17.6,14.2-20.5c0.3-1.2,0.8-1.7,1.9-1.7c1.3,0,1.7,0.6,3.1,5.6c0.9,3.1,2.3,7.4,3,9.7
	c1.1,3.2,1.4,5.7,1.4,11.1c0,6.6-0.1,7.2-1.8,10.2c-2.3,4-5.6,8.3-13.4,17.6l-6.1,7.2l1.7,0.5c5,1.3,27.9-4.5,36-9.2
	c3.5-2,4.6-3.8,6.4-10.9c1.9-7.4,7.9-20.2,11.5-24.4c2.5-3,6.1-6.2,21.2-19.1c21.3-18.1,32.6-29,33.4-32.2c0.4-1.6,2.8-2.1,2.8-0.5
	c0,0.5,0.8,2.3,1.9,3.9c2.1,3.4,3.8,10.1,3.8,15c0,8.2-2.7,17.7-8.4,29.4c-1.9,3.8-3.5,7.2-3.6,7.6c-0.3,0.7,9.3-4.5,16.6-9
	c6.8-4.2,12.9-9.7,13.7-12.4c0.3-1.1,0.8-5.7,0.9-10.3c0.5-14,3.2-21.5,11.2-31.8c6.1-7.8,12.9-19,19.6-31.8
	c4.4-8.6,5.8-10.8,7-10.9c0.8-0.1,1.4,0,1.4,0.3c0,0.3,1.5,2.1,3.3,4.1c6.7,7.1,8.7,13.8,8.7,29.5c0,14.4-0.3,13.9,5.9,8.4
	c9.7-8.6,18.3-17.3,20.7-20.8c2.1-3.1,2.3-3.8,1.9-6c-1-5.8-1.3-15-0.6-20.7c1-8.9,3.3-16.9,8.7-30.6c7.2-18.1,7.2-18.3,10.7-31
	c3.6-13,3.9-13.5,7.4-10.4c6,5.3,10,9.8,11.8,13.2c2.8,5.3,5.2,14,6.1,22.2l0.8,6.9l2.4-3c8.4-10.3,14.1-20.2,14.8-25.7
	c0.3-2.5,0-4-1.5-7.9c-4.1-10.1-4.9-14.1-4.9-23.7c0-7.5,0.3-10,1.7-16.2c2.2-9.5,2.9-16,3.7-38.4c0.7-20.5,0.9-21.9,2.5-21.9
	c0.6,0,4.2,1.4,7.9,3.2c8.3,3.9,12.2,7.5,16,14.9c3.1,6.1,4.8,11,6.9,20.2c0.9,3.8,1.7,7,1.8,7.1c0.1,0.1,1.4-1.9,2.9-4.4
	c4.7-8.3,9.1-14.6,12.6-18c3.8-3.7,8.8-6.5,11.7-6.5c4.1,0,11.6,5.5,14.1,10.4c1.9,3.7,1.3,12.9-1.3,21.8c-2.4,8.2-3,11.6-2,11.6
	c0.9,0,14.6-4.7,17.5-6c6.3-2.8,22.6-6.9,30.6-7.7l4.6-0.4l0,3.4c0,3.9-1.3,7-5.1,12.6c-10.6,15.6-42,45.8-53.7,51.7
	c-1.7,0.9-7.6,2.9-13,4.6c-11.4,3.4-13.7,4.5-16.3,7.4c-3.6,4.1-17.4,25.3-17.4,26.7c0,0.6,7.9,0.4,12.1-0.2
	c6.6-1,21.3,0.9,32.4,4.2l5.4,1.6l-1.3,4.6l-1.3,4.6l-2.9,0.3c-9.4,1-14.8,4-31.5,17.4c-14.3,11.5-22.7,17.4-30.9,21.8
	c-4.9,2.6-7.1,3.2-22.5,5.7c-4.3,0.7-8.9,1.8-10.2,2.5c-3.7,1.9-8,5.5-18.1,15.1c-5.1,4.8-10.8,10.2-12.7,11.9c-2,1.8-3.5,3.5-3.5,4
	c0,0.6,3,0.8,12,0.8c26.3,0,38.1,2.2,38.7,7.2c0.4,3.7-1.9,5.3-15.4,10.3c-7.3,2.7-18.3,8.3-28.9,14.7c-8.5,5.1-16.8,9-23.5,11.1
	c-4,1.3-6.1,1.5-13.3,1.5c-7.6,0-9.2-0.2-14.5-1.8c-8.9-2.7-11.4-2.4-19.8,2.7c-18.7,11.4-23.4,14.1-26.1,15.1c-1.7,0.6-3,1.3-3,1.5
	c0,0.2,2.1,0.6,4.6,0.8c20.8,1.9,34.8,8,39.4,17c1.7,3.3,1.8,3.9,1.4,8.1l-0.4,4.5h-5.6c-4,0-7.3,0.5-11.5,1.6
	c-31.3,8.5-40.1,10.1-53.5,9.7c-11-0.4-15.8-1.8-26-7.6c-5.7-3.3-7.6-4-10.5-4.2c-5-0.4-12,1.6-27,7.5c-7,2.7-13.9,5.3-15.4,5.8
	c-1.5,0.4-2.7,1-2.7,1.2s1.8,0.8,4,1.2c2.2,0.4,4.8,1.2,5.9,1.7c17.4,7.7,25.8,13.5,34.3,23.7c2.1,2.5,4.1,4.5,4.6,4.5
	c0.5,0,0.8,0.6,0.6,1.7l-0.2,1.7l-6-0.2c-3.3-0.1-20.5-0.7-38.2-1.4c-37.3-1.4-35.4-1-47.5-8.8c-10.1-6.5-14.7-8.5-19.1-8.5
	c-2.3,0-4.4,0.4-5.9,1.2l-2.3,1.2l11.5,6.6c22.8,13.1,44.6,26,48.9,28.8c2.4,1.6,5.3,3.1,6.5,3.3c1.9,0.4,2.2,0.7,2.2,2.1v1.7
	l-28.1,4l-28.1,4l-4.1-1.1c-4.9-1.3-11.3-4.2-19.3-8.9c-3.2-1.9-11.5-6.3-18.5-10s-18.3-9.6-25.1-13.2c-15.3-8.2-17.7-9.3-23.7-10.6
	c-11.2-2.3-14.8-1.3-35,9.4c-39.3,20.8-70.9,36.6-72.9,36.6C626.4,1093.4,624.1,1093,622,1092.5z M631,1081.7
	c1.7-0.6,5.5-2.4,8.4-4.1c3-1.7,10.7-5.8,17.1-9.1c16.9-8.7,32-16.6,42.3-22.2c15.3-8.4,24.1-10.7,35-9.3c7.3,1,11.6,2.7,24.3,9.4
	c5.8,3.1,13.8,7.2,17.8,9.2c7.7,3.8,13.6,7.1,26.8,14.7c8.8,5.1,16.1,8.6,20.1,9.7c5.8,1.6,31.2-1.8,31.2-4.1c0-0.5-1.6-1.7-3.7-2.7
	c-2-1-7.1-3.9-11.3-6.3c-8.4-4.9-19.9-11.5-37.9-21.6c-10.7-6-13.9-8.1-13.1-8.6c0.1-0.1,3.4-1.2,7.2-2.5c3.8-1.2,9.8-3.3,13.3-4.5
	c8.3-2.9,14.3-4,17.9-3c2.7,0.7,8,4.1,17.6,11.1c7.6,5.6,9.4,6.1,25.5,6.7c7.3,0.3,18.1,1,23.8,1.5c5.8,0.5,11.6,1,13,1l2.5,0
	l-2.5-2.5c-6.9-7-30.8-15-52.2-17.3c-3.9-0.4-7.1-1-6.9-1.4c0.1-0.3,2-1.2,4.3-2c2.2-0.8,11.2-4.2,20-7.6c8.7-3.4,20.4-7.8,26-9.9
	c5.6-2,12.6-4.7,15.6-5.9c13.4-5.4,15.5-5.2,31.8,3.8c6.3,3.5,13,5.1,22.6,5.6l7.7,0.4l23.5-6c15.6-3.9,23.5-6.2,23.5-6.8
	c0-0.4-0.3-0.8-0.7-0.8c-0.4,0-1.5-0.6-2.5-1.3c-1-0.7-3.6-2-5.8-2.9c-6.9-2.8-14.8-4-31.9-4.7c-18-0.8-23.3-1.3-23.6-2.2
	c-0.1-0.3,2-1.8,4.7-3.1c2.7-1.4,6.3-3.4,8.1-4.5c2.7-1.7,13.2-7.9,40.3-23.7c3.3-1.9,6.5-3.9,7-4.3c1.5-1.3,8.7-4.7,10-4.7
	c0.6,0,5.4,1.2,10.6,2.6c6.2,1.7,11.5,2.7,15.3,2.9l5.8,0.4l8.2-4c4.5-2.2,13.7-7.1,20.5-10.9c6.8-3.8,14-7.5,16-8.3
	c2-0.8,3.7-1.6,3.7-1.9c0-1-30.8-0.5-42.9,0.7c-6.3,0.6-11.5,1-11.7,1c-0.4-0.3,2.7-3.2,6.6-6.2c7.2-5.4,23.9-20.4,39-35.1
	c5.4-5.2,11.4-10.5,13.2-11.7c3.3-2.1,3.6-2.2,12.9-2.7c8.8-0.5,9.9-0.7,14.5-2.7c5.4-2.3,17.8-9.8,23.5-14.1
	c1.9-1.5,8.3-6.7,14.2-11.6c5.9-4.9,11.5-9.5,12.5-10.1c1-0.6,1.8-1.6,1.8-2.3c0-1.2-0.4-1.2-8.4-0.8c-12.2,0.7-22.7,2.8-29.4,6.1
	c-1.8,0.9-8.2,3.2-8.7,3.2c-0.8,0-0.5-1.2,0.5-2.4c0.6-0.6,3.6-5.1,6.7-10c3.1-4.9,6-9.3,6.4-9.8c0.4-0.5,5.6-8.3,11.5-17.3
	c6.9-10.5,11.3-16.7,12.4-17.2c0.9-0.5,5-1.7,9-2.8c14.6-3.9,21.1-6.8,28.9-12.7c4.2-3.2,15.8-14.5,23.2-22.7
	c2.6-2.8,6.9-7.4,9.7-10.3c2.8-2.9,4.9-5.4,4.6-5.7c-0.8-0.8-10.1,1.1-16.8,3.3c-7.7,2.6-16.4,6.9-24.9,12.4l-6,3.9l-1.5-1.4
	c-4-3.7-3.6-9.4,1.4-22.8c4.8-13,6.2-18.1,5.7-21.4c-0.5-3.2-2.9-5.9-5.4-5.9c-6.2,0-20.7,22.5-26.4,40.9l-1.2,3.7l-3.1-0.4
	c-6-0.8-5.9-0.6-6.4-15.6c-0.6-17.8-3-27.3-9.7-38.2c-2-3.2-4.8-5.7-5.6-4.9c-0.2,0.2-0.5,6.7-0.7,14.6c-0.4,16.8-1.2,24.4-3.2,34
	c-3.1,14.7-2.7,19.6,2.4,32c2.8,6.8,3.3,8.6,3.3,12.1c0,3.9-0.2,4.5-4,11.1c-2.2,3.8-4.8,8.2-5.8,9.6c-1,1.5-1.8,2.8-1.8,3.1
	c0,0.6-11.7,17.7-16.7,24.4c-2.5,3.3-5.9,7.4-7.6,9.2l-3.1,3.1l0.5-7.3c0.9-12.6,0.5-25-0.9-31.1c-0.7-3-1.8-8.2-2.4-11.6
	c-1-5.5-1.3-6.2-2.4-6.2c-1.1,0-1.5,0.7-2.4,4.3c-1.5,6.3-6.5,19.5-11.1,29.8c-2.2,4.9-4.5,10.8-5.1,13c-1.2,4.6-1.5,15.9-0.6,26.9
	c0.7,8.5,0.5,9-6.2,16.9c-11.6,13.8-44.7,43.1-48.6,43.1c-0.7,0-0.8-0.2-0.3-0.5c0.4-0.3,1-1.8,1.4-3.3c0.4-1.6,1.4-5.6,2.3-8.9
	c4-14.9,4.6-21,3.8-36c-0.4-6.2-0.6-7.1-1.5-7.1c-0.7,0-2,1.7-3.8,5.2c-4.5,8.9-7.7,13.8-13.5,21.1c-7.6,9.5-9,12-10.9,20.6
	c-1.5,6.6-1.7,8-1.3,14.7c0.6,10.2,0.1,11.9-4.8,15.7c-13,10.1-40.4,27.3-57.2,35.8c-2,1-3.7,2.1-3.7,2.5c0,0.3-0.3,0.6-0.6,0.6
	c-0.9,0-0.8-1.7,0.1-2c0.4-0.1,1.5-2.3,2.5-4.8c1.8-4.7,9.6-19.4,12.7-24c2.8-4.2,6.9-12.7,8.9-18.8c1.8-5.4,3.3-16.4,2.2-16.4
	c-0.6,0-3.6,2.9-6.8,6.7c-3.7,4.4-12.2,12-26,23.5c-10.7,8.9-12,10.2-15,15c-3.8,6.2-4.7,8.5-7.3,17.8c-1,3.8-2.3,7.7-2.8,8.7
	c-2.3,4.5-7.2,7.5-18.8,11.2c-14.8,4.8-21.1,6.1-32.6,6.7c-5.9,0.3-11.7,0.9-12.9,1.2c-1.5,0.4-2.1,0.4-2.2-0.2
	c0-0.4-1.2-1.6-2.7-2.6c-1.4-1-2.7-2.2-2.8-2.5c-0.1-0.3,4.6-5.1,10.4-10.5c12-11.2,16.6-16.4,19.3-22c1.9-3.9,3.7-11.9,2.9-12.7
	c-0.2-0.2-2.1,1.3-4,3.5c-4.6,5.1-10.6,9.6-21.2,16c-9.9,6-14.1,9-19.3,13.9c-3.9,3.7-11.9,13.7-15.8,19.7
	c-5.4,8.4-6.7,8.9-47.5,19.6c-9.3,2.4-20.4,5.4-24.7,6.7c-4.3,1.2-10.2,2.6-13,2.9c-5.1,0.7-5.3,0.6-16-2.2
	c-5.9-1.6-13.5-3.6-16.8-4.5c-17-4.5-40.5-11.3-42.1-12.2c-2.5-1.4-5-5.2-10.8-16.2c-2.8-5.3-5.5-10.2-6.1-10.8
	c-4.4-4.9-40.2-29-43.1-29c-1.1,0-1.1,1.9,0,2.8c0.5,0.4,3,6.4,5.7,13.4c2.7,7,6.4,16.9,8.4,22.1c2,5.2,3.4,9.6,3.2,9.8
	c-0.2,0.2-8.2-2-17.7-4.8c-9.5-2.8-22.2-6.5-28.1-8.2c-5.9-1.6-11-3.3-11.2-3.6c-0.5-0.8-1.6-9.2-2.1-16.3
	c-0.9-12.2-2.2-17.3-6.1-23c-2.7-4-3.2-4.4-23.4-21.3c-7.9-6.6-16.4-13.7-18.9-15.9c-4.5-3.9-7.2-5.7-7.2-4.9c0,0.2,1,2.2,2.2,4.3
	c7,12.7,15.5,39.9,17.1,54.9c0.3,3,0.2,3.3-0.8,3.3c-0.7,0-1.3-0.2-1.4-0.5c-0.1-0.3-3.7-2.3-8-4.6c-4.3-2.2-11-6.3-14.9-8.9
	c-3.9-2.7-12.8-8.6-19.8-13.2c-7-4.6-13.5-8.9-14.4-9.6c-2.7-2.1-3.3-5.3-2.6-15.9c0.9-14.1-1-25.3-5.6-34.6
	c-4.8-9.6-10.5-16.7-24-30.2c-4.8-4.7-9-9.5-9.5-10.6c-1.1-2.6-1.6-2.5-2.5,0.4c-1.9,6.5,0.2,24.9,6,51.9c1.2,5.6,2.7,11.9,3.4,14
	c0.6,2,1.4,4.5,1.6,5.5c0.8,3.2-1.4,2-7.1-4.1c-3-3.2-8.1-8.1-11.2-10.9c-3.1-2.8-10.4-9.7-16.2-15.3c-5.8-5.6-13.4-12.7-17-15.8
	c-7.9-6.8-10-9.9-9.6-14.4c0.2-1.8,1.4-5.4,2.9-8.5c3.5-7.2,4.9-13.6,4.9-22.3c0-9.8-1.4-14.1-10.9-34.2
	c-6.2-13.2-8.8-20.6-9.4-26.6c-0.5-4.5-0.8-5.1-1.9-3.1c-5.1,9.6-6,13.2-6,24.9c0,6.6-2.7,44.2-3.6,49.4l-0.3,2.1l-2.6-3.7
	c-3.3-4.7-14.7-22.9-21.1-33.5c-4.9-8.2-10.9-17.5-18.2-28.5l-3.8-5.7l5.6-10.5c11.3-21.1,13.1-26.4,13-39.1c0-6.8-0.3-8.8-2.6-17.8
	c-1.4-5.6-2.8-11.7-3-13.5c-0.2-1.8-0.6-3.3-0.8-3.3c-0.9,0-3.2,3.5-6,9.5c-7.8,16.4-12.9,29.7-17,44.3c-0.7,2.5-1.5,4.6-1.8,4.6
	c-0.3,0-0.7-1.2-1-2.7c-1.9-11.6-7.6-30.3-12.4-40.2c-4.2-8.8-6.8-12.5-9.7-14.3c-2.6-1.6-3-1-3,4.6c0,5.8,1.4,12.2,5.1,23.6
	c6.6,20.4,7,23.3,3.5,26.7c-1.2,1.2-2.7,2.2-3.4,2.2c-0.7,0-2.2-1-3.4-2.3c-3.4-3.6-13.8-11.9-19.7-15.7
	c-14.7-9.5-31.5-16.3-32.7-13.3c-0.2,0.6,0.2,1.4,1.2,2.1c1.7,1.2,13.8,14.7,16.4,18.3c0.9,1.2,3,4.5,4.6,7.2
	c7.4,12.3,15.3,19.6,28,25.8c5.6,2.7,9.3,4.1,14,5.1c7.9,1.7,10.2,2.9,14.8,7.5c6.9,7,23,29.8,33.7,47.7c3,5.1,7,11.8,8.9,14.9
	c3.3,5.5,4.5,8.3,3.8,8.9c-0.3,0.3-13.1-4.6-14.2-5.5c-1.1-0.9-19.2-7.9-25.8-10c-9.7-3.1-27.2-5.6-27.2-3.9c0,1.1,1.2,2.2,5.1,4.5
	c4.2,2.5,10.7,7.5,14.6,11.1c11.4,10.7,21.4,18.1,29.5,22c11.8,5.6,19.3,6.6,31.1,4.3l6.4-1.2l2.5,2.3c1.4,1.3,7.1,6.8,12.7,12.2
	c16.4,16,42,39.8,45.5,42.4l3.2,2.4l-15.4,0.4c-18.4,0.5-22.6,0.8-35.1,2.8c-15.2,2.5-15.5,2.7-6.2,4.4c9.7,1.7,18.9,5,29.1,10.2
	c5.2,2.7,10.9,5.2,12.6,5.7c9.8,2.6,36.9,2.8,46.7,0.3c3.1-0.8,6.2-1.2,7.3-1c3.6,0.7,28.6,16.1,39.8,24.6c5.8,4.4,6.5,5.5,5.7,9.4
	l-0.5,2.8l-4.4,0.4c-2.4,0.2-9.1,0.7-14.9,1.1c-9.5,0.6-15.2,1.6-17.5,3.3c-0.3,0.3-2.1,0.9-3.9,1.5c-1.8,0.6-4.8,2-6.7,3.2
	c-1.9,1.2-3.9,2.2-4.5,2.2c-0.7,0-1.1,0.5-1.1,1.5c0,1.3,0.5,1.5,6.5,2.5c3.6,0.6,10.9,2.1,16.4,3.4c19.4,4.4,21.4,4.7,33.8,4.7
	h11.6l7.9-2.6c4.8-1.6,10-3.9,13.2-5.8c4.6-2.7,5.6-3.1,7.5-2.7c3.6,0.7,68.9,25.1,68.9,25.8c0,0.2-2.2,0.6-4.9,0.9
	c-5.3,0.5-16.2,2.6-17.9,3.6c-0.6,0.3-3.2,1.4-5.8,2.5c-5.5,2.2-19.2,12.1-19.6,14.1c-0.2,1.2,0.2,1.2,18.1,0.9
	c26.8-0.6,30.6-0.7,34.7-1.2c2.7-0.3,6.5-1.9,14.3-5.7l10.6-5.2l7.5-0.2c5.6-0.2,10.7,0.2,20,1.5c6.9,0.9,13.7,1.8,15.3,2l2.8,0.3
	l-9.4,4.1c-5.2,2.3-15.4,6.7-22.8,9.9c-7.3,3.2-18.1,7.9-23.8,10.5c-5.8,2.6-14.8,6.4-20,8.5c-9,3.6-12.6,5.8-11.4,6.8
	c0.9,0.8,14.9,6.9,17.4,7.6C623.8,1082.9,627.6,1082.8,631,1081.7z M724.2,927.1c-5.2-0.2-10.9-0.5-12.5-0.5l-3-0.1V809.9V693.4
	h29.2c31.8,0,38.9,0.5,49.3,3.5c13.4,3.9,25.4,11.7,31.4,20.6c6.2,9.1,8.9,19.4,8.9,33.4c0,22-4.2,36.4-13.5,46.4
	c-3.3,3.6-5.5,5.2-9.3,7.1c-2.7,1.4-5.3,2.6-5.7,2.7c-0.7,0.2,1,3.9,17.2,37.4c3.6,7.5,9.3,19.3,12.6,26.3c3.3,7,8.5,17.8,11.5,24.1
	l5.5,11.5l-11.5,3c-6.3,1.6-13.6,3.6-16.3,4.3c-2.6,0.7-4.8,1.1-4.9,0.8c-0.2-0.6-20.2-35.3-30.9-53.6c-4.2-7.2-10.7-18.4-14.4-24.8
	l-6.7-11.6l-5.9-0.2l-5.9-0.2v51.8v51.8l-7.8-0.1C737.2,927.5,729.4,927.3,724.2,927.1z M769,784.7c5.5-1.8,9.2-4,12.7-7.5
	c8.4-8.6,12.4-23.2,8.9-32.5c-2.9-7.7-10.5-15.7-18.7-19.7c-6-2.9-9.4-3.6-18-3.6h-6.6v32.5v32.5l9.4-0.3
	C762.2,785.7,767.3,785.2,769,784.7z M678.4,922.8l-17.2-2.8l-0.7-3c-0.4-1.6-3.9-17-7.9-34.1l-7.3-31.1l-23.6-0.2
	c-13-0.1-23.6-0.1-23.6,0c0,0.5-14.7,43.3-14.9,43.5c-0.5,0.5-25.1-12.6-25.1-13.3c0-0.4,3.7-12.7,8.3-27.4
	c13-41.7,15.2-48.8,16.2-51c0.5-1.1,0.9-2.2,0.9-2.5c0-0.5,4.7-15.6,18.7-60.6c2.9-9.3,7.4-23.6,9.9-31.9l4.7-15.1h12.2h12.2
	l0.4,1.7c0.2,1,1.2,5,2.2,9c1,4,3.1,12.7,4.7,19.4c3,12.5,9,37.2,14,57.2c1.6,6.3,7.6,31.1,13.4,55.2c5.8,24.1,12.5,52,14.9,61.9
	c5.1,21.1,6.4,26.5,6.4,27.3C697.2,926,698.4,926.1,678.4,922.8z M636.7,813.9c-2.2-8.6-9.7-34-10-33.6c-0.2,0.2-1,2.2-1.8,4.3
	c-0.8,2.1-2.1,5.2-2.9,7c-2.6,5.7-9.2,22.2-9.2,23c0,0.6,2.7,0.8,12.1,0.8H637L636.7,813.9z M858.5,798.8V692.8H876h17.5l0,98l0,98
	l-15.6,7.3c-8.6,4-16.4,7.7-17.5,8.1l-1.8,0.8V798.8z M912.8,871.8c0.5-5.8,1.6-23.9,1.6-26.8c0-2.2,0.2-2.4,1.7-2.4
	c2.5,0,6.9-2.3,15.7-7.9c4.2-2.7,13.9-8,21.7-11.8c18.3-9,20.2-10.9,17.1-16.9c-0.4-0.8-1.6-2.5-2.7-3.8c-1.1-1.3-7.7-9.4-14.6-18
	c-6.9-8.6-15.9-19-20-23.2c-20.6-21.1-26.4-33.6-22.2-47.3c3.3-10.7,11.1-17.3,24.6-21.1c4.7-1.3,6.7-1.4,32.2-1.6l27.1-0.2v16.9
	v16.9l-21.4,0c-11.8,0-21.8,0.2-22.2,0.5c-1,0.6-1.7,4.6-1.2,6.7c0.2,0.9,3.5,5.3,7.3,9.9c6.8,8.1,9.3,11,24,27.2
	c7.3,8,15.9,18.8,19.2,24.1c6,9.5,5.3,22.1-1.9,32.8c-6.5,9.8-17.5,17.9-37.8,28.2c-6.6,3.3-16,8.2-20.9,10.8
	c-11.9,6.4-21,10.3-24.7,10.8l-3,0.4L912.8,871.8z M507.3,853.5c-3-2.6-9.9-9-15.4-14.2l-10-9.5v-69.5v-69.5l26.5,0.2
	c26.4,0.2,26.5,0.2,31.9,1.9c10.3,3.1,16.2,6.6,22.4,13.2c7.6,8.1,11.2,18,11.2,31c0,33.3-11.7,45.7-47.9,50.9
	c-4.9,0.7-9.8,1.4-10.9,1.6l-2.1,0.4l-0.2,34.2l-0.2,34.2L507.3,853.5z M532.8,756.3c4-1.5,7.7-4.9,9.2-8.6c0.6-1.4,1.2-5,1.4-8
	c0.6-9.8-2.6-16.5-9.3-19.5c-3.2-1.5-4.6-1.7-12.7-1.9l-9-0.3v20.2v20.2l8.4-0.4C527.1,757.7,530.1,757.3,532.8,756.3z
	 M1255.4,639.7v-3.5l2.4,0c2.9,0,6.8-1.4,8.5-2.9c1.2-1.1,1.2-3.1,1.2-105.5V423.4l-1.7-1.6c-1.8-1.7-5.1-2.8-8.3-2.8l-2.1,0v-3.5
	v-3.5l63.3,0c61.2,0,83.1,0.5,93.8,1.9c23.5,3.1,39.1,9.4,52.3,20.9c9.9,8.6,16.2,21.5,18.5,38.1c1.1,7.6,0.4,27.2-1.2,34.7
	c-2.5,11.7-6.9,20.3-14.2,27.6c-4.3,4.3-12.4,9.9-18.7,12.7c-2.3,1-4.1,2-4.1,2.2c0,0.2,2.4,4.3,5.4,9.2c3,4.9,6.3,10.5,7.4,12.5
	s3.5,6,5.4,9c5.4,8.8,15.9,26.2,17.4,29c4.3,7.7,11.9,19.9,13.8,22c2.5,2.7,5.6,4.4,8.4,4.4c2,0,2,0,2,3.5v3.5h-40.3h-40.3v-3.4
	v-3.4l3.1-0.4c2-0.3,3.7-1,4.8-2c2.6-2.4,2.2-5-1.9-12.9c-2-3.8-4.9-9.3-6.4-12.2c-4.3-8.3-26.7-48.7-29.4-53l-2.3-3.8l-36.9-0.2
	l-36.9-0.2V592c0,39,0,40.3,1.2,41.3c1.7,1.5,5.6,2.8,8.5,2.9l2.4,0v3.5v3.5h-37.5h-37.5V639.7z M1408.7,504.4
	c9.8-2.2,15.8-6.6,19.4-14.2c1.4-3,1.6-4.3,1.6-9.5c0-5.5-0.2-6.4-2-9.9c-3.3-6.4-9.3-10.9-17.8-13.5c-3.3-1-8.6-1.1-48.6-1.3
	l-44.9-0.2v24.8v24.8h43.9C1398.2,505.4,1404.7,505.3,1408.7,504.4z M248.2,636.9c0-2.9,0.1-3.2,1.7-3.5c5.3-1,7.6-1.8,8.9-3
	l1.4-1.3V524.8c0-92.7-0.1-104.4-1-105.6c-1-1.5-6.2-3.3-9.3-3.3c-1.7,0-1.8-0.1-1.8-3.2v-3.2l109.1,0l109.1,0l4.1,1.4l4.1,1.4
	l0.2,27.5l0.2,27.5h-3.1c-3,0-3.1-0.1-3.6-2.1c-0.9-4.3-2.4-8-3.6-9.2c-1.2-1.1-4.7-1.2-79.2-1.2h-77.9v12.7v12.7h57.8
	c53.4,0,57.9-0.1,59.8-1.1c2.6-1.4,5.3-4.7,5.7-6.9c0.3-1.7,0.6-1.8,3.5-1.8h3.1v32.4v32.4h-3.1c-3,0-3.1-0.1-3.5-2.2
	c-0.5-2.8-2.5-5.2-5.5-6.8c-2.4-1.2-4-1.3-60.3-1.3h-57.8v34v34h79.9h79.9l1.4-1.4c1.2-1.3,1.8-3.4,3.1-9.8c0.2-1.3,0.7-1.4,3.4-1.4
	h3.2V607v26.6l-1.7,2c-0.9,1.1-2.9,2.6-4.3,3.2c-2.5,1.1-7.2,1.2-113.2,1.2l-110.7,0V636.9z M687.8,636.7c0.2-3.2,0.3-3.3,2.1-3.5
	c3.4-0.4,6.5-1.4,8.2-2.7l1.7-1.3V524.5V419.8l-1.7-1.2c-2-1.4-6-2.6-8.6-2.7c-1.7,0-1.7-0.1-1.7-3.2c0-2.9,0.1-3.2,1.7-3.6
	c1-0.3,11.6-0.5,23.7-0.5l21.9,0l4.8,2.3c6.4,3.1,8.8,4.7,23.1,15.2c6.7,4.9,19.3,14.2,28.1,20.5c8.7,6.4,17.3,12.6,19.1,14
	c1.7,1.3,11.5,8.4,21.6,15.6c18.3,13.2,18.4,13.2,20.1,12.2c1.6-0.9,26.3-21.2,34.1-28c2-1.7,10.2-8.8,18.2-15.7
	c13.5-11.6,23.1-19.9,27-23.4c5.1-4.5,14.8-9.8,21.1-11.5c3.7-1,16.6-1.2,36.9-0.5l12.5,0.4v3v3l-3.2,0.4c-4.1,0.5-7.3,2-8.2,4
	c-1,2.1-1,207.4-0.1,209.2c0.9,1.7,3.8,3.1,7.7,3.6l3.4,0.5l0.2,3.3l0.2,3.3h-38.2h-38.2l0.2-3.3l0.2-3.3l3.2-0.4
	c4.4-0.5,5.6-1,7.2-2.7l1.4-1.5l-0.2-75.3l-0.2-75.3l-6.7,5.4c-3.7,3-9.2,7.6-12.3,10.3c-6.4,5.5-21.4,18-36.2,30.2
	c-5.5,4.5-10.7,8.9-11.6,9.7c-2.2,2-14.7,12.5-20.2,16.9c-3.7,2.9-4.6,3.4-5.5,2.8c-0.6-0.4-6.1-4.9-12.3-10
	c-6.2-5.1-13.6-11.1-16.4-13.3c-5.3-4.2-41.1-33.1-56.1-45.3c-4.6-3.7-8.5-6.8-8.7-6.8c-0.6,0-0.4,149,0.2,150.8
	c0.8,2,3.5,3.4,7.8,4l3.4,0.5l0.2,3.3l0.2,3.3h-37.5h-37.5L687.8,636.7z M1015.5,636.7l0.2-3.3l3.4-0.5c3.9-0.6,6.8-1.9,7.7-3.6
	c0.8-1.6,0.9-206.9,0.1-209.1c-0.7-1.9-4.1-3.6-8.3-4.1l-3.2-0.4v-3.1v-3.1l108.4,0c112.4,0,111.6,0,116.2,2.5l1.4,0.7V440v27.3
	h-3.1c-3.1,0-3.1,0-3.5-2.4c-0.7-4-2.2-8.3-3.3-9.2c-0.8-0.7-15.3-0.9-79-1l-78-0.2v13v13l57.6-0.2c56.8-0.2,57.7-0.2,60.2-1.5
	c1.9-1,3-2.3,4.4-4.9l1.9-3.6l3,0l3,0v32.4v32.4h-3c-2.9,0-3.1-0.1-3.9-2.2c-1.1-3-3.7-6-6.2-7.1c-1.7-0.7-12.4-0.9-59.6-0.9h-57.5
	v34v34h79.7c74.3,0,79.7-0.1,80.7-1.1c1.5-1.5,2.7-4.5,3.2-8.3l0.4-3.3h3.1h3.1v26.7c0,30.3,0.2,29-5.3,31.6l-2.7,1.3H1126h-110.6
	L1015.5,636.7z M508.6,635.7v-3.1l4-0.7c4.7-0.9,6.9-2.3,7.6-5.1c0.3-1.1,0.4-48.2,0.3-104.8c-0.1-84.4-0.3-103-1-103.8
	c-1-1.2-5-2.7-8.5-3.3c-2.4-0.4-2.4-0.4-2.4-3.5v-3.1h40.6h40.6v3.1c0,3.1,0,3.1-2.4,3.6c-4.9,0.8-7.2,1.6-8.4,3
	c-1.3,1.4-1.3,2.2-1.3,88.6v87.2H621h43.2l1.5-1.5c0.9-0.9,1.8-2.9,2.3-5.2c0.4-2.1,0.9-4.1,1-4.5c0.1-0.5,1.4-0.8,3.4-0.8h3.2V607
	c0,28.4,0,28.1-4.3,30.2c-2.3,1.2-5.5,1.2-82.6,1.4l-80.2,0.2V635.7z M97.7,636.8c-36.2-0.2-71.8-0.5-79.2-0.5L5,636.2v-28.9v-28.9
	h3.2h3.2v2.4c0,3.3,3,9,5.7,10.8c2.2,1.4,2.2,1.4,29.9,1.4c15.3,0,51.8-0.2,81.3-0.4l53.6-0.4l1.9-1.7c1.6-1.4,1.8-1.9,1.1-2.7
	c-0.4-0.5-2.2-1.3-3.9-1.7c-1.8-0.4-6.9-3.1-12.4-6.4c-5.1-3.1-9.5-5.7-9.7-5.7c-0.2,0-1.3-0.7-2.4-1.5
	c-1.8-1.4-29.6-18.4-34.7-21.2c-2.7-1.5-26-15.7-31.7-19.3c-2.3-1.4-6.4-3.9-9.2-5.6c-4.2-2.4-41.3-24.9-53-32.1
	c-3.3-2-5.3-5.3-8.3-14c-5.8-16.8-5.8-31.8,0.2-44.1c2.1-4.5,3.6-6.3,8.2-10.9c6.8-6.7,12-10.5,18.7-13.7l5-2.4h78.4h78.4l3.6,1.4
	l3.6,1.4l0.4,18.9c0.2,10.4,0.5,21.9,0.7,25.7l0.3,6.8h-3.2c-2,0-3.3-0.3-3.4-0.8c-0.1-0.4-0.5-2.5-0.9-4.6
	c-0.5-2.5-1.2-4.3-2.3-5.4l-1.6-1.6h-65.6c-70.5,0-68.2-0.1-72.2,3.3c-2.2,1.8-2.5,4.2-0.9,7.4c2.1,4.1,0.4,3,30.4,21.7
	c7.7,4.8,16.3,10.2,19.1,12.1c7.3,4.7,41,25.8,42.9,26.8c0.9,0.5,5.6,3.4,10.5,6.5c13,8.3,26.2,16.6,47.3,29.7
	c10.3,6.4,19.3,12,20.1,12.6c0.7,0.5,2.1,2.8,3,5c5.1,12.7,4.8,28.5-0.9,43c-3.2,8.2-8.4,12.6-20.2,16.8l-4.6,1.7l-25.5-0.1
	C174.9,637.3,133.9,637.1,97.7,636.8z M1199.1,400.6c-21.5-7.4-32-13.3-41.5-22.9c-1.2-1.3-4.8-5.7-7.9-9.9
	c-7.1-9.5-9.4-12.1-16.4-18.3c-7.3-6.5-11.3-11.3-11.3-13.8c0-1.6,0.4-2.1,2.7-3.1c4.6-2,11-2.8,22.7-2.8c9.6,0,11.8,0.2,16.4,1.4
	c2.9,0.8,5.4,1.4,5.5,1.3c0.1-0.1-1.6-3.7-3.7-8.1c-3.1-6.4-4.7-8.8-8.2-12.4c-4.5-4.7-6-5.5-12-6.3c-8-1.1-18.3-4.1-23.8-6.8
	c-4.2-2.1-6.7-3.9-13-9.4c-4.9-4.2-8.6-7-18.4-13.9c-9.9-6.9-10.3-7.3-16.5-13.3l-5.4-5.3l1.9-1.6c7.8-6.4,25.4-9.4,39.9-6.9
	c3.1,0.5,5.8,0.8,6,0.6c0.5-0.5-11.7-15.5-17.6-21.4c-3-3.1-6.6-6-8-6.6c-3-1.3-10.6-1.5-24.8-0.7c-8.1,0.5-10.4,0.4-14.9-0.5
	c-11.8-2.4-20.1-6.9-35.3-19.1c-5.2-4.2-12.7-9.6-16.5-11.8c-3.8-2.3-8.1-4.9-9.5-5.8c-1.4-0.9-3-1.7-3.7-1.7
	c-0.8,0-1.2-0.5-1.2-1.3c0-0.7,0.2-1.3,0.5-1.3c0.3,0,2.5-1.3,4.8-2.8c5.5-3.6,11.7-5.9,19.3-7.1c3.4-0.5,7.7-1.2,9.7-1.6
	c1.9-0.3,4.6-0.6,6-0.6c2.4,0,2.4,0,1.3-1.3c-0.6-0.7-3.3-2.9-6-4.9c-2.6-2-4.9-3.8-5.1-4c-0.8-0.9-7-4.5-10.2-6
	c-5.5-2.5-8.2-2.2-14.6,1.5c-3,1.7-6.9,3.6-8.7,4.1c-7.9,2.3-19,0.5-33.4-5.4c-25-10.3-25-10.3-43.5-10.2c-13,0.1-13.5,0-13.5-1.2
	c0-0.7,0.3-1.3,0.6-1.3c0.3,0,1.2-1.5,1.9-3.3c3.2-7.8,12.2-16.6,20.7-20.1c2.5-1,6.8-2.3,9.5-2.8c2.8-0.5,5.7-1.1,6.4-1.2
	c0.8-0.2-1.9-1.8-7.9-4.7c-15.8-7.7-17.6-7.7-25.6-0.5c-5.1,4.6-13.1,9-18.8,10.2c-5.2,1.2-7.7,1-18.8-1.1c-7.8-1.5-17-1.4-28.3,0.4
	c-3.3,0.5-9.3,1.1-13.4,1.4l-7.4,0.4l0.6-4.1c0.7-5.3,0.9-5.8,3.5-11.2c2.8-5.8,8.2-11.6,14.4-15.8l4.8-3.2l-2.6-0.4
	c-3.3-0.5-14.1-4.3-18.7-6.5c-4.8-2.3-10-7.4-11-10.8c-1.7-5.6,1.1-11.8,6.7-15.1c5-3,11-4.2,20.3-4.3c6,0,9,0.2,11,0.9
	c1.5,0.5,2.7,0.9,2.7,0.8c0-0.1-1.5-4-3.4-8.7c-5.3-13.2-6.8-18.3-7.6-27l-0.3-3.3h2.5c1.4,0,2.6-0.3,2.7-0.7
	c0.4-1.2,4.6,0.5,11.4,4.6c6.8,4.1,7.8,4.6,18.7,8.6c15.3,5.7,23.4,10.4,28.9,16.6c1.7,1.9,4.6,7,8,14c3.3,6.8,6.2,11.8,7.5,13.1
	c1.4,1.4,7.2,4.6,16.6,9.2c8,3.9,15.2,7.4,16.1,7.9c0.9,0.5,3.1,1.5,5,2.2c2.9,1.2,3.3,1.2,3,0.3c-1.1-2.7-3.5-13.9-4.1-18.6
	c-0.7-5.7-0.8-21.1-0.1-28c0.3-3.4,0.6-4.1,1.5-4.1c0.8,0,1.8,1.5,3.4,5.4c3.7,8.7,8.4,15.4,16.3,23.2c3.9,3.8,10.1,9.2,13.7,12
	c3.7,2.7,7.8,5.9,9.2,7.1s5.2,4.1,8.4,6.6c3.2,2.5,6.7,5.7,7.7,7c1.1,1.5,2.6,5.4,3.9,9.6c2.6,9.1,3.3,10.4,6.9,13.6
	c5,4.5,36.5,28.8,37.2,28.8c0.2,0,0.3-4.4,0.3-9.7c0-10.4,0.8-15.9,3.4-24.9c1.8-6.1,4.8-13,5.7-13c0.3,0,2.1,0.9,4,2
	c3.4,1.9,3.5,2.2,7.8,11c2.4,5,5,10,5.8,11.2c0.8,1.2,2.7,4.3,4.2,6.8c1.5,2.5,6.3,9.4,10.7,15.2c5.2,6.9,9,12.7,10.9,16.6l2.9,6
	l0.4,13.7c0.3,10,0.7,14.3,1.4,15.9c1.1,2.7,4.6,6.6,15.1,17.4l7.9,8.1l0.8-5.9c1.2-8.5,4.4-17.4,9.3-25.9c2.3-4,4.2-7.6,4.2-8.1
	c0-0.5,0.6-0.8,1.3-0.8s1.3,0.4,1.3,0.9c0,1.4,5.6,14.9,8,19.4c1.2,2.3,4.7,7.8,7.8,12.4c10.2,15.2,12.6,20.1,14.7,29.5
	c2.2,10.3,2.8,19.2,1.6,28.5c-1.8,14.8-1.9,14.5,4.8,28.3c3.2,6.6,6.6,13.1,7.6,14.4c1,1.3,2.1,3,2.4,4c1,2.5,1.6,2,2.4-1.8
	c1.4-6.7,8-18.8,14.5-26.9c1.5-1.9,3-4.1,3.2-4.9c0.5-2.1,2-1.9,5.2,1c2.2,1.9,2.9,3.1,3.6,5.8c0.4,1.9,2.2,7.9,3.8,13.3
	c5,16.5,5.4,17.9,6.5,23.8c1.7,8.7,1.5,25.8-0.3,34.5c-0.8,3.6-1.7,7-2,7.6c-0.3,0.6-1.6,4.2-2.9,8.1c-6.1,18.1-11.2,23.8-21,23.8
	C1208.9,403.8,1206.5,403.2,1199.1,400.6z M1216.3,392.9c3.9-4.8,6.1-8.9,8.5-15.8c3.2-9.2,4.2-16.1,4.2-28.9
	c0-12.8-0.5-16.4-4.3-33.3c-2.4-10.6-2.8-11.8-4.1-12c-0.9-0.1-1.5,0.2-1.8,1c-0.2,0.6-2,4.6-3.9,8.8c-5.3,11.6-5.9,14.9-5.5,27.5
	c0.2,5.8,0.1,10.2-0.1,9.8c-0.2-0.4-0.7-0.8-1.1-0.8c-0.4,0-2.4-2.5-4.4-5.6c-2-3-5.7-8.4-8.1-11.9c-5.6-8.1-12-18.8-17-28.6
	c-4.8-9.4-5.4-12.9-4.4-27.6c0.4-5.4,0.5-13.8,0.4-18.7c-0.3-7.7-0.5-9.5-2.1-13.7c-2.6-7-6-13.1-13.8-24.4
	c-3.8-5.6-7.3-10.8-7.6-11.6c-0.4-0.8-1-1.3-1.3-1.2c-1.6,0.5-2.4,7.4-2.7,22.5c-0.3,17.1,0,16.1-4.6,14.8
	c-4.9-1.4-37-35.5-38.8-41.3c-0.4-1.2-0.9-8.4-1.2-15.9c-0.4-10.1-0.8-14.3-1.5-16c-1-2.3-4.8-8-13.7-20.4
	c-8.9-12.4-17.2-26.4-18.3-30.5c-0.5-2-0.7-2-2.1-0.6c-0.9,0.9-1.1,2.9-1,16.7c0,13.8,0.2,16.1,1.4,20.4c0.7,2.6,1.1,4.9,0.8,5
	c-0.3,0.1-0.6,0.8-0.6,1.5c0,1.2-0.3,1.3-4,1c-4.1-0.3-8.5-2.4-13.8-6.7c-2.9-2.4-11.9-9.9-17.8-14.9c-2.6-2.2-9.1-7-14.3-10.7
	s-10.3-7.4-11.2-8.4c-1.2-1.3-2-3.3-3-7.4c-0.7-3.1-1.3-6-1.3-6.4c0-0.4-0.6-2.3-1.3-4.2c-1.2-3.3-2-4.1-10.6-11.3
	c-5.1-4.2-11.6-9.6-14.4-11.9c-2.8-2.3-7.7-6.2-10.8-8.5c-3.1-2.4-6.1-4.7-6.5-5.3c-1.4-1.8-1.5-0.3-0.2,4.7
	c2.8,11,6.8,20.8,8.7,21.6c1,0.4,1.3,2.8,0.3,2.8c-0.3,0-0.6,0.6-0.6,1.3c0,1.1-0.4,1.3-4.3,1.3c-4.2,0-4.8-0.2-21.4-8
	c-9.4-4.4-18.8-8.8-20.9-9.8c-2.1-1-5-2.2-6.4-2.6c-9.1-2.9-11.5-5.6-17.7-19.9c-7.5-17.3-12.4-21.3-38.1-31.2
	c-5.2-2-10.6-4.2-11.9-4.9c-2.1-1.1-2.4-1.1-2.4-0.2c0,3.1,6.4,18.6,8.2,20c0.2,0.2,1.1,1.4,1.9,2.7c0.8,1.3,3.2,4,5.4,6
	c2.2,2,4.5,4.4,5.1,5.4c1.4,2.3,0.9,4.6-1.4,5.5c-2.1,0.9-8.1-0.4-20.2-4.2c-6.9-2.2-8.1-2.4-15.5-2.4c-7.3,0-8.2,0.1-11.1,1.6
	c-2.6,1.3-3.2,2-3.4,3.5c-0.2,2.5,1.5,4.6,5.4,6.8c6.1,3.3,21.3,6.4,35.2,7.2l6.8,0.4v3.7c0,2.7-0.3,4-1.1,4.8
	c-0.6,0.6-4.3,2.2-8.1,3.6c-8.9,3.1-15.2,6-19.7,9c-3.4,2.3-6.6,6-6.6,7.7c0,1.1,15,1.1,17.6,0.1c3-1.2,12.5-0.8,20.5,0.9
	c13.7,3,13,3,20.2-1.4c3.5-2.1,8.6-5.9,11.3-8.3c6.4-5.7,8.2-6.3,14.7-4.7c13.2,3.1,36.5,13.8,42.5,19.6c2.1,2,2.4,3.2,1.7,7.5
	l-0.4,2.3l-8,0.4c-13.3,0.7-19.3,1.9-26,5.1c-3.3,1.6-6.4,2.8-6.9,2.8c-0.5,0-0.8,0.4-0.7,0.8c0.2,0.5,2,1,4.5,1.3
	c10.4,1.2,22.1,4.6,37,11c17.5,7.4,21.2,7.6,33.8,1.7c10.1-4.8,12.5-5.2,18.3-3c8.7,3.3,28.1,15.8,39.1,25.3
	c3.9,3.3,4.1,4.1,3.2,9.5l-0.4,2.4l-13.1,0c-12,0-13.7,0.2-20.3,1.7l-7.2,1.7l7.8,5.8c4.3,3.2,9,6.9,10.4,8.1
	c4.8,4.2,15,10.7,20.2,12.8c7.4,2.9,14.6,4.3,20.6,3.8c19.5-1.5,28-1.1,32.3,1.6c1.8,1.1,11,11,16.9,18.3c1,1.2,3.7,4.2,6,6.7
	c8,8.6,14.9,17.8,15.5,20.7c0.1,0.6-0.8,2.2-2.1,3.6l-2.3,2.6l-8.4-2.8c-11.6-3.8-14.6-4.3-24.8-3.8c-4.7,0.2-9.2,0.6-10,0.8
	c-2.1,0.5-1.8,2.5,0.5,3.4c3.8,1.6,9.2,5.6,19,13.9c5.4,4.6,11.4,9.4,13.3,10.6c7.7,5,15.9,7.7,27,9.1c8,1,11.9,2.6,14.6,5.8
	c7.7,9.5,21.4,34.5,23.2,42.4c0.5,2.4,0.5,2.6-1.1,3.2c-3.7,1.4-8.9,0.4-16-3.1c-8.4-4.2-13.9-5.4-22.7-5c-3.6,0.1-6.7,0.4-6.9,0.6
	c-0.2,0.2,3.3,4,7.8,8.5c5.5,5.5,9.5,10.1,12.2,14.2c5,7.6,8.5,11.3,15,15.6c7.3,4.9,14.2,8.2,23.3,11.1c5.7,1.8,8.9,3.3,11.3,5.1
	c1.9,1.4,3.7,2.5,4.1,2.5C1212.9,396.8,1214.6,395,1216.3,392.9z M256.5,392.8c-5.2-3.1-6.3-5.8-6.3-14.8c0-8.8-0.8-11.6-5.5-19.4
	c-10.9-18-11-22.7-1.5-52.6c5.3-16.6,5.8-19.8,5.3-32.1l-0.4-10.1l4.4,2.4c12.4,6.8,21,19.4,25,36.7c0.8,3.4,1.7,6.1,1.9,6
	c0.3-0.1,5.9-8.3,12.4-18.3l12-18.1l0-6c0-3.3-0.3-10-0.6-14.9c-0.5-8.5-0.5-9.2,1.2-15.5c1.5-5.9,6.2-16.5,8.3-18.7
	c3.2-3.3,16.6-23.5,19-28.5c2.2-4.6,3.4-6.4,4.8-7.1c6.1-3.2,9,1.7,9.8,16.4c0.2,4.1,0.8,8.4,1.2,9.5l0.8,1.9l5.4-5.2
	c7.6-7.2,21-22,22-24.3c1.1-2.5,1.2-7.6,0.5-19.9c-0.5-9.6-0.5-10.4,0.8-14.3c3.7-10.9,12.2-20.2,32.7-35.7c4.9-3.7,10-7.9,11.4-9.4
	c3-3.1,5.3-4.5,7.7-4.4c4.1,0,5.9,3.7,5.9,12c0,9-3.3,23.1-6.4,27c-1.5,2-1.5,2.3,0,2.3c0.7,0,1.3-0.3,1.3-0.6
	c0-0.3,5.1-3.5,11.3-7.1c12.1-7,32.1-20,34.3-22.4c1.8-1.9,2.7-5.6,2.7-10.7c0-10.6,3.5-18.9,11-26.4c6.1-6.1,11.3-9.7,24.8-17.1
	c10.9-6,17.6-9.9,18.1-10.5c0.2-0.2,2.3-1.8,4.8-3.5c4.5-3.1,9.2-5.4,10.9-5.4c0.5,0,1.7,1.6,2.6,3.7c1.5,3.1,1.7,4.5,1.7,9.4
	c0,5.4-0.1,6-2.6,11.1c-1.4,3-4.5,8.2-6.8,11.6c-4,5.9-5.1,8.7-3.5,8.7c0.4,0,1.2-0.4,1.7-0.9c0.6-0.5,9.3-3.1,19.4-5.8
	c10.1-2.7,18.8-5.2,19.2-5.5c0.4-0.3,0.9-1.8,1.2-3.2c0.7-4.5,4.1-13.9,6.2-17.3c5.5-8.9,13.8-14.5,32.2-21.8
	c14.1-5.6,20.8-9.5,26.5-15.6c1.9-2,3.9-3.6,4.4-3.6c0.6,0,2.5,0.8,4.2,1.7c8.3,4.6,8.1,14.5-0.7,32.4c-1.9,4-3.4,7.3-3.3,7.4
	c0.6,0.5,20.9-2.3,23.4-3.2c11.8-4.4,24.4,4.9,22.2,16.5c-0.7,3.9-2,6.3-4.5,8.4c-5.8,4.8-14.9,8.2-28.1,10.2
	c-3.6,0.6-3.1,2.1,1.6,5.2c4.8,3.2,11.8,10.4,15.5,16c2.5,3.7,5.8,12.3,5.1,13.1c-0.6,0.6-39,1.7-51.9,1.4
	c-11.6-0.2-14.2-0.5-17.1-1.6c-6.7-2.5-11.2-5.2-17.2-10.5c-3.3-2.9-6.6-5.7-7.4-6.1c-2.1-1.1-8.7-0.9-12.8,0.5
	c-2,0.7-8.2,3.5-13.8,6.2c-11.5,5.7-11.6,5.9-3.6,7.5c10.5,2.1,19.9,8.2,25.6,16.5c2.5,3.7,5.9,11.7,5.2,12.4
	c-1.3,1.1-9.3,1.9-18.7,1.9c-9.3-0.1-11.2,0.1-18.9,1.8c-4.7,1-10.8,2.2-13.5,2.6c-10.7,1.5-23.4,0.5-32.4-2.6
	c-5.1-1.7-13.8-6.2-14.2-7.3c-0.4-0.9-2.7-1.2-2.7-0.3c0,0.3-8.2,6.1-18.1,12.9c-10,6.8-19,12.9-20,13.6s-1.9,1.6-1.9,1.9
	c0,0.3,3.1,1.1,7,1.8c18.5,3,34,8.4,36.2,12.7c0.4,0.8,1.1,1.6,1.4,1.9c0.4,0.3,0.2,0.6-0.6,0.9c-8.2,2.9-28.8,12.3-36.2,16.4
	c-15.4,8.6-21.3,10-43.3,10.2c-18.3,0.2-17.4,0-25.7,6.5c-7.6,6-18.9,19.8-19,23.1c0,1,0.6,1.1,4.6,1.1c2.5,0,7.2-0.5,10.5-1.1
	c7.7-1.4,14.4-0.6,25.2,3.1c9.2,3.1,9.9,3.4,9.9,4.8c0,0.8-1.1,1.4-4,2.2c-10.1,2.9-28.5,13.8-38.2,22.6
	c-11.5,10.3-21.7,15-38.3,17.5c-3.5,0.5-7.2,1.4-8.2,1.9c-6.5,3.4-22.7,26.9-19.8,28.7c0.3,0.2,0.6,0.1,0.6-0.2
	c0-0.3,2.8-1.5,6.2-2.7c5.5-1.9,7-2.1,13.2-2.1c9.5-0.1,15.3,1.9,22.3,7.6c1.9,1.5,3.7,2.8,4.1,2.8s0.6,0.5,0.6,1.2
	c0,0.9-0.8,1.3-3.4,1.9c-10.4,2.3-19.1,8.8-33.5,25.2c-13,14.7-16.7,18.3-21.5,20.8c-5.6,2.9-11.9,4.8-18.4,5.6
	c-8.3,1-8.3,0.9-10.3,9.2c-1.3,5.2-4.8,7.9-10.3,7.9C260.6,394.9,259.2,394.5,256.5,392.8z M265.4,385.9c0-2.4,2.9-16.9,3.4-17.5
	c0.2-0.2,1.5,0,2.8,0.4c1.4,0.4,4.6,0.9,7.2,1.1c4.3,0.4,5.2,0.2,11-1.9c11.5-4.2,11.3-4.1,24.4-19.2c7.3-8.4,14-15.1,20.3-20.1
	c5.8-4.6,6.4-5.3,6.4-6.4c0-1.2-8-2.6-11.6-2.1c-5.6,0.8-12,4.7-20.4,12.3c-6.7,6.1-10.9,9.2-11.9,8.6c-2.3-1.3-3.7-3.2-3.7-5.1
	c0-4.1,11.6-25.3,21.1-38.6c12.1-16.9,13.5-18,25-18.8c5.7-0.4,7.9-0.9,12.6-2.8c3.1-1.3,7.6-3,9.8-3.9c2.3-0.9,4.3-1.8,4.4-2.1
	c0.5-0.8,10.9-9.2,14.6-11.9c8.3-6,14-9.8,14.9-9.8c0.6,0,1-0.6,1-1.6c0-1.4-0.3-1.6-2.5-1.6c-4.9,0-17,1.9-27.1,4.3
	c-8.7,2.1-10.5,2.3-11.7,1.6c-1.7-0.9-4.6-4.5-3.9-4.8c0.3-0.1,2.9-3.5,5.8-7.5c11.5-15.6,26.4-31.1,34.9-36.2l4.7-2.9l18.1-0.4
	l18.1-0.4l6.4-2.1c7.5-2.5,10.2-3.8,18.3-8.9c7.2-4.5,12.4-6.9,16.1-7.5c2.5-0.3,2.7-0.5,2.7-2.2c0-2.1,1.4-1.7-15.9-4.2
	c-11.4-1.6-12.1-1.6-23.8-0.9c-14.4,0.9-14.3,0.9-14.3,0.1c0-0.3,3.4-2.9,7.5-5.6c4.1-2.8,9.3-6.3,11.6-8c9-6.4,24.8-17.5,25.9-18.1
	c0.7-0.3,4.2-3,7.8-5.8c6.7-5.3,13-8.8,15.7-8.8c0.8,0,1.4-0.3,1.4-0.6c0-1.3,1.9-1.1,4.5,0.5c2.8,1.7,10.2,5.9,13.4,7.5
	c3,1.5,10.1,2.7,19.3,3.1c10.2,0.5,15.6-0.2,21.9-2.8c3.9-1.6,4.9-1.7,16-1.9c6.5-0.1,11.9-0.5,11.9-0.7c0-0.3-1.3-2-2.9-3.8
	c-2-2.2-4.3-3.9-7.5-5.4c-4.7-2.3-6.8-2.9-20.4-6.3c-4.6-1.2-9.1-2.5-10.2-3.1c-2.5-1.3-4.3-3.4-3.9-4.4c0.4-0.9,23.4-13.1,31-16.4
	c7.7-3.3,15.1-5.6,20.6-6.4c5-0.7,5.4-0.7,8.6,0.9c1.9,0.9,5.9,3.9,9.1,6.8c7.4,6.8,11.2,9.3,15.9,10.4c3.6,0.9,31.8,2.1,42.5,1.9
	c6.2-0.1,11.1-0.8,11.1-1.5c0-0.8-2.9-4.1-8.3-9.4c-4.9-4.9-14.7-11.6-18.7-12.8l-2.9-0.8v-4.2v-4.2l5.5-0.8
	c9.4-1.4,18.1-3.3,25.3-5.6c6.4-2.1,7.2-2.5,10.3-5.6c3.8-3.9,4.5-5.5,3.3-7.7l-0.9-1.6l-9.2,0.4c-9.9,0.4-39.4,3.7-46.1,5.2
	c-1.2,0.3-1.3,0.1-0.9-1.8c0.9-4.1,4.5-9.3,11.5-16.7c7-7.4,9.1-12.4,7.7-17.7c-0.5-1.6-0.9-2.9-1.1-2.9c-0.1,0-1.8,1.3-3.8,2.9
	c-4.4,3.6-12.4,7.7-24,12.1c-12.1,4.7-17.1,7.5-22.1,12.1c-5.2,4.9-7.8,9.6-9.5,17.4c-2.2,9.7-1,8.8-19.9,15.3
	c-24.4,8.3-47.3,15.4-47.3,14.6c0-0.2,1.9-4.9,4.2-10.3c2.9-6.6,5.8-12.2,9.1-17.1c5.2-7.8,7.6-12.1,7.6-13.6c0-0.5,0.4-1.3,1-1.7
	c1.2-1,1.3-3.2,0.2-3.2c-1.2,0-6.8,2.7-11.3,5.5c-2.2,1.4-8.6,4.8-14,7.7c-20.3,10.5-27.5,16.8-30.9,27.5c-0.4,1.2-1,6.2-1.3,11.2
	c-0.4,5.6-1,9.9-1.7,11.6c-1.5,3.7-4.5,5.7-47.3,31.9c-3.3,2-9.9,5.8-14.6,8.5l-8.6,4.8l-0.2-4.8c-0.2-6.1,0.8-9.8,5.3-18.7
	c3.9-7.7,5.7-12.8,6.3-17.6l0.4-3.3h-1.9c-1.1,0-2.1,0.4-2.3,1c-0.2,0.5-0.7,1-1,1c-2.5,0-14.4,9.4-22.3,17.6
	c-14.7,15.2-16.9,21-14.9,40.5c0.6,6,1.2,11.7,1.4,12.8c0.3,1.8,0,2.1-3.7,4.5c-5.1,3.3-14.1,12.5-21.5,21.8
	c-11.3,14.2-15.2,18.8-18.6,22l-3.5,3.3l-2-1l-2-1l0.4-4.5c0.2-2.5,0.8-6.7,1.3-9.3c0.5-2.6,1.1-8.1,1.3-12.2
	c0.4-7.2,0.3-7.5-0.9-7.5c-0.7,0-1.6,0.7-2.1,1.5c-0.5,0.8-2.7,3.6-4.9,6.2c-14.4,16.4-20.8,35.5-17.4,52c0.5,2.6,1.1,6.6,1.3,8.9
	l0.3,4.1l-5.9,9.4c-6,9.5-23.5,35.5-28,41.6c-2.5,3.4-4.4,4.4-7.2,3.7c-3.2-0.8-3.8-2.8-4.2-15.3c-0.4-10-0.6-12-2-15.9
	c-2.1-6-3.7-9.2-5.3-11.3c-2.3-2.9-3.1-2.3-4.3,3.6c-1.3,6.4-5.6,22.5-9,33.1c-2.1,6.6-2.4,8.4-2.4,14c0,7.7,0.8,10.1,6.5,18.9
	c5.5,8.5,6.4,11.1,6.4,19c0,3.6,0.3,7.6,0.6,8.9c0.7,3,2.9,5.5,4.9,5.5C265.1,387.9,265.4,387.6,265.4,385.9z M963,360
	c-4.2-0.2-8.8-0.5-10.3-0.5l-2.7-0.1v-71.8c0-39.5,0.1-71.8,0.2-71.8c0.1,0,6.5,3.2,14.1,7.2l14,7.2l0.2,65.2l0.2,65.2l-4-0.1
	C972.4,360.4,967.2,360.2,963,360z M833.7,262.2v-97.8l1.7,0.6c1,0.3,6.9,2.1,13.2,4.1c31.1,9.5,36.1,11.2,42.7,14.5
	c11.6,5.8,17.2,9.8,25.2,17.9c8.6,8.7,11.1,14.8,11.6,28.9c0.6,16.2-1,24.6-6.8,36.2c-3.6,7.1-7.4,12.4-12,16.6l-3.7,3.4l4.4,9.8
	c2.4,5.4,7,15.6,10.1,22.5c3.1,7,6.8,15,8.2,17.8c3.5,7.2,10.1,22,10.1,22.7c0,0.3-6.2,0.5-13.9,0.5h-13.9l-2.8-6.2
	c-6.7-15.1-15.6-34.5-17.4-38.3c-1.1-2.3-3.8-8.2-6.1-13.2l-4-9h-9.8h-9.8v33.3V360h-13.7h-13.7V262.2z M882.8,253.8
	c4.6-2.1,9.1-6.2,11.2-10.3c1.5-2.8,1.7-3.9,1.7-9.6c0-5.9-0.1-6.7-2.1-10.6c-2.5-5.1-7.1-9.4-12.2-11.4c-2.6-1-5.5-1.4-11.6-1.7
	l-8.1-0.3v23v23l8.7-0.3C878.2,255.5,879.5,255.3,882.8,253.8z M483.8,300.4v-58.9l6.8-4.3c3.8-2.4,7-4.5,7.1-4.7
	c0.2-0.2,2.2-1.6,4.4-3c2.3-1.4,6.7-4.2,9.8-6.2l5.7-3.6l0.2,19.7l0.2,19.7h14.6h14.6v-30.4v-30.4l7.8-3.8
	c7.4-3.6,22.5-10.7,27-12.6l2.1-0.9v89.2v89.2h-18.4h-18.4l-0.2-31.6l-0.2-31.6l-14.4-0.2l-14.4-0.2v31.8v31.8H501h-17.1V300.4z
	 M602,268v-91.4l7.1-2.2c3.9-1.2,16.6-5.1,28.1-8.7c11.5-3.6,24.8-7.8,29.4-9.3c4.7-1.6,8.6-2.7,8.7-2.6s0.4,8.7,0.6,19.1l0.5,18.9
	h-19.1h-19.1v19.4v19.4h19.1h19.1l-0.2,18.6l-0.2,18.6l-18.9,0.2l-18.9,0.2v27.9v27.9h19.4h19.4v17.8v17.8h-37.5H602V268z
	 M695.3,258.4v-101l13.4,0.2l13.4,0.2l25.6,51.1l25.6,51.1l0-51.9l0-51.9h16.5h16.5v101.6v101.6H790h-16.4l-1.8-4
	c-1.6-3.6-16.3-34.5-29.7-62.3c-2.8-5.9-6.2-12.7-7.6-15.2l-2.4-4.6l0,43l0,43h-18.4h-18.4V258.4z"/>
</svg>
