<svg xmlns="http://www.w3.org/2000/svg" width="12.97" height="16" viewBox="0 0 12.97 16">
  <defs>
    <style>
      .cls-1 {
        fill: #313131;
        fill-rule: evenodd;
      }
    </style>
  </defs>
  <path id="Forme_824" data-name="Forme 824" class="cls-1" d="M4617.5,2918.56a2.465,2.465,0,1,0,2.42,2.46A2.437,2.437,0,0,0,4617.5,2918.56Zm0,3.57a1.105,1.105,0,1,1,1.09-1.11A1.089,1.089,0,0,1,4617.5,2922.13Zm4.6-5.19a6.406,6.406,0,0,0-9.19,0,6.7,6.7,0,0,0,0,9.36h0l4.59,4.7,4.6-4.68A6.726,6.726,0,0,0,4622.1,2916.94Zm-0.82,8.27-0.14.14-3.64,3.73-3.66-3.73a5.363,5.363,0,0,1,0-7.44,5.094,5.094,0,0,1,7.3-.14A5.316,5.316,0,0,1,4621.28,2925.21Z" transform="translate(-4611.03 -2915)"/>
</svg>
