<svg xmlns="http://www.w3.org/2000/svg" width="18" height="20" viewBox="0 0 18 20">
  <defs>
    <style>
      .cls-1 {
        fill: #4075e5;
        fill-rule: evenodd;
      }
    </style>
  </defs>
  <path id="Forme_1" data-name="Forme 1" class="cls-1" d="M576,478.655a3.433,3.433,0,0,0,6.864,0,2.85,2.85,0,0,0-.142-0.894V466.145l9.731-2.52v7.286a3.628,3.628,0,0,0-1.974-.6A3.472,3.472,0,1,0,594,473.8v-0.229h0V463.144A1.149,1.149,0,0,0,592.827,462h-0.07L582.2,464.656a1.161,1.161,0,0,0-1.081,1.146v9.989a3.539,3.539,0,0,0-1.717-.458A3.338,3.338,0,0,0,576,478.655Zm14.455-2.956a1.925,1.925,0,1,1,1.975-1.924A1.96,1.96,0,0,1,590.453,475.7Zm-11.048,1.169a1.788,1.788,0,1,1-1.832,1.787A1.8,1.8,0,0,1,579.405,476.868Z" transform="translate(-576 -462)"/>
</svg>
