<svg xmlns="http://www.w3.org/2000/svg" width="34" height="36" viewBox="0 0 17 18">
  <defs>
    <style>
      .cls-1 {
        fill: #fff;
        fill-rule: evenodd;
      }
    </style>
  </defs>
  <path id="Forme_825" data-name="Forme 825" class="cls-1" d="M3024.86,1506.11h-1.3v-0.42a0.68,0.68,0,1,0-1.36,0v0.44h-3v-0.44a0.68,0.68,0,1,0-1.36,0v0.44h-3.03v-0.44a0.675,0.675,0,1,0-1.35,0v0.44h-1.3a2.179,2.179,0,0,0-2.16,2.17v12.51a2.188,2.188,0,0,0,2.16,2.18h12.68a2.188,2.188,0,0,0,2.16-2.18v-12.52A2.139,2.139,0,0,0,3024.86,1506.11Zm-12.68,1.36h1.3v0.44a0.675,0.675,0,1,0,1.35,0v-0.44h3.03v0.44a0.675,0.675,0,1,0,1.35,0v-0.44h3.03v0.44a0.68,0.68,0,0,0,1.36,0v-0.44h1.29a0.841,0.841,0,0,1,.83.83v1.29h-14.37v-1.29A0.828,0.828,0,0,1,3012.18,1507.47Zm12.68,14.17h-12.68a0.834,0.834,0,0,1-.83-0.83v-9.87h14.31v9.87A0.8,0.8,0,0,1,3024.86,1521.64Zm-9.73-9.34h-1.63a0.548,0.548,0,0,0-.55.55v0.58a0.548,0.548,0,0,0,.55.55h1.63a0.548,0.548,0,0,0,.55-0.55v-0.58A0.548,0.548,0,0,0,3015.13,1512.3Zm8.39,0h-1.62a0.54,0.54,0,0,0-.54.55v0.58a0.54,0.54,0,0,0,.54.55h1.64a0.548,0.548,0,0,0,.55-0.55v-0.58A0.553,0.553,0,0,0,3023.52,1512.3Zm-4.19,0h-1.64a0.548,0.548,0,0,0-.55.55v0.58a0.548,0.548,0,0,0,.55.55h1.64a0.54,0.54,0,0,0,.54-0.55v-0.58A0.54,0.54,0,0,0,3019.33,1512.3Zm-4.2,3.18h-1.63a0.546,0.546,0,0,0-.55.54v0.59a0.555,0.555,0,0,0,.55.55h1.63a0.555,0.555,0,0,0,.55-0.55v-0.59A0.546,0.546,0,0,0,3015.13,1515.48Zm8.39,0h-1.62a0.538,0.538,0,0,0-.54.54v0.59a0.546,0.546,0,0,0,.54.55h1.64a0.555,0.555,0,0,0,.55-0.55v-0.59A0.551,0.551,0,0,0,3023.52,1515.48Zm-4.19,0h-1.64a0.546,0.546,0,0,0-.55.54v0.59a0.555,0.555,0,0,0,.55.55h1.64a0.546,0.546,0,0,0,.54-0.55v-0.59A0.538,0.538,0,0,0,3019.33,1515.48Zm-4.2,3.19h-1.63a0.555,0.555,0,0,0-.55.55v0.59a0.555,0.555,0,0,0,.55.55h1.63a0.555,0.555,0,0,0,.55-0.55v-0.59A0.555,0.555,0,0,0,3015.13,1518.67Zm8.39,0h-1.62a0.546,0.546,0,0,0-.54.55v0.59a0.546,0.546,0,0,0,.54.55h1.64a0.555,0.555,0,0,0,.55-0.55v-0.59A0.559,0.559,0,0,0,3023.52,1518.67Zm-4.19,0h-1.64a0.555,0.555,0,0,0-.55.55v0.59a0.555,0.555,0,0,0,.55.55h1.64a0.546,0.546,0,0,0,.54-0.55v-0.59A0.546,0.546,0,0,0,3019.33,1518.67Z" transform="translate(-3010 -1505)"/>
</svg>
