<svg xmlns="http://www.w3.org/2000/svg" width="128.001" height="157.904" viewBox="0 0 12.97 16">
  <defs>
    <style>
      .cls-1 {
        fill: #edf1f4;
        fill-rule: evenodd;
      }
    </style>
  </defs>
  <path id="Forme_824" data-name="Forme 824" class="cls-1" d="M3044.5,748.556a2.469,2.469,0,1,0,2.42,2.469A2.444,2.444,0,0,0,3044.5,748.556Zm0,3.575a1.107,1.107,0,1,1,1.09-1.106A1.1,1.1,0,0,1,3044.5,752.131Zm4.6-5.191a6.409,6.409,0,0,0-9.19,0,6.7,6.7,0,0,0,0,9.361h0l4.59,4.7,4.6-4.681A6.723,6.723,0,0,0,3049.1,746.94Zm-0.82,8.272c-0.05.051-.09,0.085-0.14,0.136l-3.64,3.728-3.66-3.728a5.36,5.36,0,0,1,0-7.438,5.086,5.086,0,0,1,7.3-.137A5.315,5.315,0,0,1,3048.28,755.212Z" transform="translate(-3038.03 -745)"/>
</svg>
