<svg xmlns="http://www.w3.org/2000/svg" width="16" height="16" viewBox="0 0 16 16">
  <defs>
    <style>
      .cls-1 {
        fill: #fff;
        fill-rule: evenodd;
      }
    </style>
  </defs>
  <path id="Forme_829" data-name="Forme 829" class="cls-1" d="M2985.49,509a0.518,0.518,0,0,1-.19-0.04l-11.99-5a0.5,0.5,0,0,1-.04-0.9l14.99-8a0.507,0.507,0,0,1,.73.555l-3,13a0.512,0.512,0,0,1-.26.33A0.533,0.533,0,0,1,2985.49,509Zm-10.83-5.553,10.48,4.363,2.62-11.351ZM2979.5,511a0.537,0.537,0,0,1-.16-0.025,0.507,0.507,0,0,1-.34-0.475V506a0.464,0.464,0,0,1,.13-0.335l4.49-5a0.5,0.5,0,0,1,.71-0.035,0.5,0.5,0,0,1,.03.7l-4.36,4.854V509l0.6-.8a0.5,0.5,0,0,1,.7-0.1,0.506,0.506,0,0,1,.1.7l-1.5,2A0.507,0.507,0,0,1,2979.5,511Z" transform="translate(-2973 -495)"/>
</svg>
