<svg xmlns="http://www.w3.org/2000/svg" width="16" height="16" viewBox="0 0 16 16">
  <defs>
    <style>
      .cls-1 {
        fill: #4075e5;
        fill-rule: evenodd;
      }
    </style>
  </defs>
  <path id="Forme_825" data-name="Forme 825" class="cls-1" d="M252.513,952.6v-1.264A2.287,2.287,0,0,0,250.281,949h-2.587a2.286,2.286,0,0,0-2.231,2.332V952.6h1.147v-1.264a1.1,1.1,0,0,1,1.084-1.133h2.587a1.1,1.1,0,0,1,1.084,1.133V952.6h1.148Zm4.463,4.315a47.124,47.124,0,0,1-6.174,2.4v0.981a0.81,0.81,0,0,1-.792.828h-2.044a0.811,0.811,0,0,1-.793-0.828v-0.981a47.18,47.18,0,0,1-6.174-2.4V965h16v-8.085h-0.021Zm-9.8,1.242a0.811,0.811,0,0,1,.793-0.828h2.044a0.81,0.81,0,0,1,.792.828v0.327a50.707,50.707,0,0,0,6.174-2.463v-2.549H241v2.549a54.623,54.623,0,0,0,6.174,2.463v-0.327Zm0.793-.022a0.021,0.021,0,0,0-.021.022v2.136a0.021,0.021,0,0,0,.021.021h2.044a0.02,0.02,0,0,0,.02-0.021v-2.136a0.02,0.02,0,0,0-.02-0.022h-2.044Z" transform="translate(-241 -949)"/>
</svg>
