<svg xmlns="http://www.w3.org/2000/svg" width="16" height="16.031" viewBox="0 0 16 16.031">
  <defs>
    <style>
      .cls-1 {
        fill: #4075e5;
        fill-rule: evenodd;
      }
    </style>
  </defs>
  <path id="Forme_824" data-name="Forme 824" class="cls-1" d="M249.493,978.54a2.474,2.474,0,1,0,2.423,2.473A2.45,2.45,0,0,0,249.493,978.54Zm0,3.581a1.109,1.109,0,1,1,1.086-1.108A1.1,1.1,0,0,1,249.493,982.121Zm4.6-5.2a6.4,6.4,0,0,0-9.191,0,6.726,6.726,0,0,0,0,9.38h0l4.595,4.707,4.6-4.69A6.747,6.747,0,0,0,254.089,976.92Z" transform="translate(-241.5 -974.969)"/>
</svg>
