<svg xmlns="http://www.w3.org/2000/svg" width="69" height="20" viewBox="0 0 69 20">
  <defs>
    <style>
      .cls-1 {
        fill: #4075e5;
        fill-rule: evenodd;
      }
    </style>
  </defs>
  <path id="Forme_617" data-name="Forme 617" class="cls-1" d="M4417.15,2130.67a14.093,14.093,0,0,1-1.3,2.43c-0.84,1.28-2.03,2.88-3.5,2.89-1.3.01-1.64-.85-3.41-0.84s-2.15.86-3.45,0.85c-1.47-.02-2.6-1.46-3.44-2.75-2.36-3.59-2.6-7.8-1.15-10.04a5.206,5.206,0,0,1,4.19-2.52c1.56,0,2.54.85,3.83,0.85,1.25,0,2.01-.86,3.81-0.86a5.12,5.12,0,0,1,3.84,2.03,4.4,4.4,0,0,0,.58,7.96h0Zm-5.78-11.42a4.408,4.408,0,0,0,.97-3.25,4.748,4.748,0,0,0-3.05,1.65,4.041,4.041,0,0,0-1,3.16,3.993,3.993,0,0,0,3.08-1.56h0Zm11.76,5.71a1.327,1.327,0,0,1-1.42,1.32,1.326,1.326,0,1,1,.01-2.65A1.325,1.325,0,0,1,4423.13,2124.96Zm-2.72,10.84v-8.48h2.63v8.48h-2.63Zm7.08-9.47h-3.14v-2.22h8.97v2.22h-3.18v9.47h-2.65v-9.47Zm14.19,6.75c0,1.11.04,2.01,0.07,2.72h-2.28l-0.12-1.19h-0.06a3,3,0,0,1-2.64,1.39c-1.72,0-2.98-1.08-2.98-3.7v-4.98h2.65v4.56c0,1.24.39,1.98,1.31,1.98a1.395,1.395,0,0,0,1.4-1.49v-5.05h2.65v5.76Zm2.11-3.05c0-1.06-.03-1.96-0.06-2.71h2.28l0.12,1.16h0.05a3.137,3.137,0,0,1,2.62-1.35c1.73,0,3.03,1.15,3.03,3.64v5.03h-2.63v-4.7c0-1.09-.39-1.83-1.34-1.83a1.4,1.4,0,0,0-1.33.98,1.908,1.908,0,0,0-.1.66v4.89h-2.64v-5.77Zm12.17,2.37c0.09,1.1,1.16,1.62,2.39,1.62a7.332,7.332,0,0,0,2.34-.35l0.35,1.79a8.538,8.538,0,0,1-3.07.54c-2.87,0-4.52-1.69-4.52-4.34a4.253,4.253,0,0,1,4.28-4.53c2.73,0,3.77,2.14,3.77,4.23a6.911,6.911,0,0,1-.08,1.04h-5.46Zm3.1-1.8a1.529,1.529,0,0,0-1.49-1.72,1.733,1.733,0,0,0-1.62,1.72h3.11Zm4,2.9a5.229,5.229,0,0,0,2.27.64c0.8,0,1.12-.28,1.12-0.71s-0.26-.64-1.24-0.97c-1.75-.59-2.43-1.55-2.41-2.54,0-1.59,1.35-2.79,3.45-2.79a5.7,5.7,0,0,1,2.39.49l-0.47,1.82a4.13,4.13,0,0,0-1.84-.49,0.807,0.807,0,0,0-1,.7c0,0.4.33,0.6,1.37,0.97,1.61,0.55,2.28,1.37,2.3,2.62,0,1.58-1.25,2.76-3.67,2.76a5.942,5.942,0,0,1-2.74-.61Z" transform="translate(-4400 -2116)"/>
</svg>
