<svg xmlns="http://www.w3.org/2000/svg" width="71" height="16" viewBox="0 0 71 16">
  <defs>
    <style>
      .cls-1 {
        fill: #4075e5;
        fill-rule: evenodd;
      }
    </style>
  </defs>
  <path id="Forme_832" data-name="Forme 832" class="cls-1" d="M4200,2164h4.69v-1.44H4200V2164Zm0-1.88h4.69v-1.44H4200v1.44Zm0-1.87h4.69v-1.44H4200v1.44Zm0-1.87h4.69v-1.44H4200v1.44Zm0-1.88h4.69v-1.44H4200v1.44Zm5.25,7.5h4.69v-1.44h-4.69V2164Zm0-1.88h4.69v-1.44h-4.69v1.44Zm0-1.87h4.69v-1.44h-4.69v1.44Zm5.26,3.75h4.68v-1.44h-4.68V2164Zm0-1.88h4.68v-1.44h-4.68v1.44Zm0-1.87h4.68v-1.44h-4.68v1.44Zm0-1.87h4.68v-1.44h-4.68v1.44Zm0-1.88h4.68v-1.44h-4.68v1.44Zm0-1.87h4.68v-1.44h-4.68v1.44Zm0-1.88h4.68v-1.44h-4.68v1.44Zm5.25,11.25h4.69v-1.44h-4.69V2164Zm0-1.88h4.69v-1.44h-4.69v1.44Zm0-1.87h4.69v-1.44h-4.69v1.44Zm0-1.87h4.69v-1.44h-4.69v1.44Zm0-1.88h4.69v-1.44h-4.69v1.44Zm5.26,7.5h4.68v-1.44h-4.68V2164Zm0-1.88h4.68v-1.44h-4.68v1.44Zm0-1.87h4.68v-1.44h-4.68v1.44Zm0-1.87h4.68v-1.45h-4.68v1.45Zm0-1.88h4.68v-1.44h-4.68v1.44Zm0-1.87h4.68v-1.44h-4.68v1.44Zm0-1.88h4.68v-1.44h-4.68v1.44Zm0-1.87h4.68v-1.44h-4.68v1.44Zm8.66,11.26h1.1c1.61,0,1.88-.87,1.88-3.62v-5.49c0-2.37-.2-3.17-2.06-3.17h-0.92v12.28Zm-2.13-14.14h3.51c3.54,0,3.87,1.25,3.87,5.91v4.75c0,4.1-.81,5.34-4.26,5.34h-3.12v-16Zm8.23,0h5.97v1.9h-3.84v5.02h3.55v1.87h-3.55v5.31h3.84v1.9h-5.97v-16Zm6.82,0h5.96v1.9h-3.83v5.02h3.55v1.87h-3.55v5.31h3.83v1.9h-5.96v-16Zm14.63,0h5.96v1.9h-3.84v5.02h3.56v1.87h-3.56v5.31h3.84v1.9h-5.96v-16Zm-7.82,14.12,4.91-12.25h-4.91V2148h6.96v1.87l-4.82,12.25h4.82V2164h-6.96v-1.88Zm16.76-7.06h0.66c1.73,0,1.99-.22,1.99-2.61,0-2.37-.21-2.58-1.56-2.58h-1.09v5.19Zm-2.13-7.06h3.41c3.19,0,3.41.82,3.41,4.32,0,2.15-.2,3.2-1.99,3.76,1.48,0.15,1.99.94,1.99,2.45V2162a10.866,10.866,0,0,0,.14,2h-2.13a2.876,2.876,0,0,1-.14-1.44v-3.61c0-1.51-.28-1.87-1.72-1.87h-0.84V2164h-2.13v-16Z" transform="translate(-4200 -2148)"/>
</svg>
