<svg xmlns="http://www.w3.org/2000/svg" width="80" height="24" viewBox="0 0 80 24">
  <defs>
    <style>
      .cls-1 {
        fill: #4075e5;
        fill-rule: evenodd;
      }
    </style>
  </defs>
  <path id="Forme_830" data-name="Forme 830" class="cls-1" d="M4207.99,2044a12,12,0,1,0,12,12A11.995,11.995,0,0,0,4207.99,2044Zm5.5,17.33a0.8,0.8,0,0,1-.68.38,0.779,0.779,0,0,1-.41-0.12c-4.72-2.84-10.32-1.19-10.37-1.18a0.8,0.8,0,0,1-.99-0.52,0.786,0.786,0,0,1,.53-0.98c0.25-.08,6.31-1.88,11.65,1.33A0.8,0.8,0,0,1,4213.49,2061.33Zm1.49-3.33a0.948,0.948,0,0,1-.81.47,1,1,0,0,1-.47-0.12,15.758,15.758,0,0,0-11.97-1.41,0.93,0.93,0,0,1-.6-1.76,17.489,17.489,0,0,1,13.5,1.55A0.936,0.936,0,0,1,4214.98,2058Zm1.68-3.81a1.158,1.158,0,0,1-1.02.61,1.122,1.122,0,0,1-.53-0.13,19.931,19.931,0,0,0-13.94-1.42,1.148,1.148,0,0,1-.69-2.19,22.083,22.083,0,0,1,15.69,1.58A1.155,1.155,0,0,1,4216.66,2054.19Zm12.43,1.01c-2.19-.54-2.9-0.84-2.9-1.65a1.392,1.392,0,0,1,1.65-1.2,4.441,4.441,0,0,1,1.92.52,4.23,4.23,0,0,1,.81.52,0.207,0.207,0,0,0,.29-0.04l0.94-1.32a0.208,0.208,0,0,0-.05-0.28,5.889,5.889,0,0,0-3.91-1.35c-3.02,0-3.8,2.1-3.8,3.3a2.787,2.787,0,0,0,.61,1.89c0.88,1.02,3.23,1.46,4.17,1.73a1.317,1.317,0,0,1,1.2,1.14c0,0.16.07,1.31-1.82,1.31a4.81,4.81,0,0,1-3.16-1.32,0.209,0.209,0,0,0-.3.02l-1.05,1.23a0.213,0.213,0,0,0,.01.28,6.666,6.666,0,0,0,4.5,1.74c2.31,0,3.98-1.27,3.98-3.28C4232.18,2056.26,4230.52,2055.57,4229.09,2055.2Zm8.54-2.18a3.412,3.412,0,0,0-2.61,1.25v-0.86a0.2,0.2,0,0,0-.2-0.21h-1.74a0.2,0.2,0,0,0-.2.21v10.42a0.2,0.2,0,0,0,.2.21h1.75a0.2,0.2,0,0,0,.2-0.21v-3.24a3.418,3.418,0,0,0,2.69,1.13,3.991,3.991,0,0,0,3.81-4.31C4241.53,2054.27,4239.32,2053.02,4237.63,2053.02Zm-0.45,6.85a2.5,2.5,0,0,1-.03-4.96,2.216,2.216,0,0,1,2.21,2.46A2.261,2.261,0,0,1,4237.18,2059.87Zm9.37-6.85a4.395,4.395,0,0,0-4.43,4.37A4.446,4.446,0,1,0,4246.55,2053.02Zm0.02,6.85a2.416,2.416,0,0,1-2.34-2.49,2.326,2.326,0,0,1,2.34-2.47,2.376,2.376,0,0,1,2.29,2.47A2.3,2.3,0,0,1,4246.57,2059.87Zm9.71-6.69h-1.98v-2a0.211,0.211,0,0,0-.21-0.21h-1.7a0.205,0.205,0,0,0-.21.21v2h-0.83a0.2,0.2,0,0,0-.21.2v1.48a0.205,0.205,0,0,0,.21.21h0.83v4.19a2.225,2.225,0,0,0,2.31,2.44,4.542,4.542,0,0,0,1.87-.44,0.2,0.2,0,0,0,.12-0.18v-1.45a0.157,0.157,0,0,0-.25-0.13,1.777,1.777,0,0,1-.99.27,0.855,0.855,0,0,1-.94-1.04v-3.66h1.98a0.2,0.2,0,0,0,.2-0.21v-1.48A0.2,0.2,0,0,0,4256.28,2053.18Zm2.14-3.65a1.32,1.32,0,1,0,1.32,1.32A1.319,1.319,0,0,0,4258.42,2049.53Zm0.85,3.65h-1.71a0.2,0.2,0,0,0-.2.2v7.97a0.2,0.2,0,0,0,.2.2h1.71a0.2,0.2,0,0,0,.21-0.2v-7.97A0.2,0.2,0,0,0,4259.27,2053.18Zm13.71,0.01h-1.91a0.2,0.2,0,0,0-.19.14l-1.95,5.6-2.17-5.62a0.205,0.205,0,0,0-.19-0.13h-3.1v-0.42a0.856,0.856,0,0,1,.91-0.9,3.239,3.239,0,0,1,1.02.19c0.16,0.06.22-.07,0.22-0.22v-1.52a3.27,3.27,0,0,0-1.67-.28,2.442,2.442,0,0,0-2.59,2.61v0.54h-0.82a0.2,0.2,0,0,0-.2.2v1.48a0.2,0.2,0,0,0,.2.21h0.82v6.29a0.2,0.2,0,0,0,.2.21h1.72a0.2,0.2,0,0,0,.2-0.21v-6.29h1.75l2.66,6.35a1.25,1.25,0,0,1-1,.82,2.138,2.138,0,0,1-1.06-.32,0.108,0.108,0,0,0-.15.05l-0.62,1.33a0.21,0.21,0,0,0,.08.26,3.594,3.594,0,0,0,1.93.51,2.812,2.812,0,0,0,2.72-2.15c0.32-.84,2.86-7.4,3.31-8.55A0.137,0.137,0,0,0,4272.98,2053.19Zm2.32,1.03h0a0.483,0.483,0,0,0-.12-0.32,0.564,0.564,0,0,0-.41-0.14h-0.63v1.39h0.3v-0.45h0.24l0.3,0.45h0.36l-0.34-.5A0.43,0.43,0,0,0,4275.3,2054.22Zm-0.31.02a0.2,0.2,0,0,1-.24.19h-0.31v-0.39h0.31a0.2,0.2,0,0,1,.24.19v0.01Zm-0.3-1.06a1.31,1.31,0,1,0,1.31,1.31A1.314,1.314,0,0,0,4274.69,2053.18Zm0,2.47a1.165,1.165,0,1,1,1.17-1.16A1.161,1.161,0,0,1,4274.69,2055.65Z" transform="translate(-4196 -2044)"/>
</svg>
