<svg xmlns="http://www.w3.org/2000/svg" width="67" height="26.03" viewBox="0 0 67 26.03">
  <defs>
    <style>
      .cls-1 {
        fill: #4075e5;
        fill-rule: evenodd;
      }
    </style>
  </defs>
  <path id="Forme_615" data-name="Forme 615" class="cls-1" d="M4208.55,2097.41a1.453,1.453,0,0,0,.3.03h0.32a5.989,5.989,0,0,1,.92.13,4.372,4.372,0,0,1,.89.27,6.935,6.935,0,0,1,1.13.55,5.862,5.862,0,0,1,.98.74,6.235,6.235,0,0,1,.86.99,7.151,7.151,0,0,1,.67,1.13,7.35,7.35,0,0,1,.42,1.25,7.873,7.873,0,0,1,.17,1.28v12.63a1.582,1.582,0,0,1-2.46,0v-13.16a3.906,3.906,0,0,0-.5-1.57,4.257,4.257,0,0,0-1.1-1.25,3.763,3.763,0,0,0-.68-0.44,4.106,4.106,0,0,0-.76-0.29c-0.19-.04-0.37-0.07-0.55-0.1a3.308,3.308,0,0,0-.55-0.05h-0.24c-0.08,0-.17.02-0.27,0.03a3,3,0,0,0-.8.17,4.352,4.352,0,0,0-.75.37,4.431,4.431,0,0,0-.92.76,5.4,5.4,0,0,0-.71.99,4.847,4.847,0,0,0-.4,1.22,5.563,5.563,0,0,0-.08,1.29,4.808,4.808,0,0,0,.33,1.6,5.354,5.354,0,0,0,.85,1.41,6.554,6.554,0,0,0,.66.52,3.577,3.577,0,0,0,.72.38,4.471,4.471,0,0,0,.86.26,5.26,5.26,0,0,0,.89.08,4.219,4.219,0,0,0,.79-0.07,4.73,4.73,0,0,0,.76-0.21,4.641,4.641,0,0,0,.8-0.41,4.287,4.287,0,0,0,.72-0.55v2.34a3.378,3.378,0,0,1-.98.64,3.955,3.955,0,0,1-1.13.26,0.974,0.974,0,0,1-.32.07c-0.11.01-.22,0.03-0.33,0.05s-0.22.02-.32,0.02h-0.33c-0.19,0-.38-0.01-0.58-0.02s-0.4-.05-0.6-0.09a5.22,5.22,0,0,1-1.2-.25,5.994,5.994,0,0,1-2.06-1.3,5.659,5.659,0,0,1-.75-0.96,7.92,7.92,0,0,1-.95-2.22,7.8,7.8,0,0,1-.26-2.4,6.943,6.943,0,0,1,2.09-4.37,5.388,5.388,0,0,1,.94-0.76,5.914,5.914,0,0,1,1.09-.56,6.278,6.278,0,0,1,1.2-.33,6.2,6.2,0,0,1,1.22-.07v-0.03Zm15.15-.03a5.388,5.388,0,0,1,.97.09,5.638,5.638,0,0,1,.94.25,7.212,7.212,0,0,1,1.34.65,5.838,5.838,0,0,1,1.17.93,6.45,6.45,0,0,1,.95,1.19,5.746,5.746,0,0,1,.63,1.38,7.14,7.14,0,0,1,.3,1.46,8.58,8.58,0,0,1,.01,1.52,5.153,5.153,0,0,1-.31,1.44,7.36,7.36,0,0,1-.65,1.36,6.26,6.26,0,0,1-.93,1.19,6.983,6.983,0,0,1-1.18.98,6.482,6.482,0,0,1-1.34.59,6.635,6.635,0,0,1-1.45.28c-0.1.02-.18,0.03-0.27,0.04a2.13,2.13,0,0,1-.27.02,2.452,2.452,0,0,1-.27.02h-0.26a7.461,7.461,0,0,1-.95-0.05c-0.31-.04-0.62-0.1-0.94-0.17a6.673,6.673,0,0,1-1.37-.61,8.2,8.2,0,0,1-1.23-.86,7.934,7.934,0,0,1-.97-1.17,6.923,6.923,0,0,1-.72-1.34,9.35,9.35,0,0,1-.31-1.12,6.336,6.336,0,0,1-.11-1.16v-0.34a0.817,0.817,0,0,1,.01-0.14,0.881,0.881,0,0,0,.02-0.17,5.869,5.869,0,0,1,.29-1.49,7.14,7.14,0,0,1,.61-1.38,7.616,7.616,0,0,1,.89-1.2,7.068,7.068,0,0,1,1.11-1,7.164,7.164,0,0,1,1.35-.69,6.654,6.654,0,0,1,1.44-.38q0.375-.06.75-0.09a4.7,4.7,0,0,1,.75,0v-0.03Zm0.34,2.29a1.5,1.5,0,0,1-.22-0.02,1.087,1.087,0,0,0-.18-0.01,0.761,0.761,0,0,0-.21-0.03h-0.21a2.458,2.458,0,0,0-.28.02,2.81,2.81,0,0,1-.29.01c-0.09.02-.18,0.04-0.28,0.06a0.985,0.985,0,0,0-.28.08,3.7,3.7,0,0,0-1.04.44,3.807,3.807,0,0,0-.88.74,6.058,6.058,0,0,0-.59.77,3.9,3.9,0,0,0-.42.87,7.864,7.864,0,0,0-.17.99,5.658,5.658,0,0,0-.03,1.01,4.036,4.036,0,0,0,.17.96,4.477,4.477,0,0,0,.37.9,3.027,3.027,0,0,0,.56.8,7.729,7.729,0,0,0,.73.67,4.419,4.419,0,0,0,.89.46,4.015,4.015,0,0,0,.95.24,1.859,1.859,0,0,0,.33.04c0.12,0.01.22,0.02,0.31,0.02a3.822,3.822,0,0,0,.68-0.06,3.446,3.446,0,0,0,.65-0.17,3.389,3.389,0,0,0,.89-0.39,4.455,4.455,0,0,0,.77-0.62,3.321,3.321,0,0,0,.65-0.74,4,4,0,0,0,.45-0.87,2.785,2.785,0,0,0,.2-0.68,3.965,3.965,0,0,0,.06-0.7v-0.3a1.358,1.358,0,0,0-.03-0.29,3.267,3.267,0,0,0-.09-0.99,3.97,3.97,0,0,0-.33-0.93,3.9,3.9,0,0,0-.57-0.86,4.539,4.539,0,0,0-.73-0.66,3.351,3.351,0,0,0-.86-0.49,3.286,3.286,0,0,0-.97-0.24v-0.03Zm9.54-8.09v12.77a4.385,4.385,0,0,0,.37,1.67,4.887,4.887,0,0,0,.93,1.4,4.813,4.813,0,0,0,.66.55,3.309,3.309,0,0,0,.75.38,8.2,8.2,0,0,0,.86.18,4.392,4.392,0,0,0,.89.05,3.845,3.845,0,0,0,.83-0.1,3.7,3.7,0,0,0,.78-0.3,4.989,4.989,0,0,0,.73-0.46,4.459,4.459,0,0,0,.62-0.61,4.733,4.733,0,0,0,.49-0.71,5.487,5.487,0,0,0,.36-0.73,6.378,6.378,0,0,0,.22-0.86,4.334,4.334,0,0,0,.09-0.89,2.112,2.112,0,0,0-.02-0.26,2.437,2.437,0,0,1-.01-0.27,3.333,3.333,0,0,0-.1-0.55c-0.05-.18-0.1-0.35-0.16-0.52a3.427,3.427,0,0,0-.83-1.5,3.513,3.513,0,0,0-1.42-.93,4.837,4.837,0,0,0-.82-0.25,5.987,5.987,0,0,0-.85-0.11,5.06,5.06,0,0,0-1.86.22,5.177,5.177,0,0,0-1.63.85v-2.37a6.085,6.085,0,0,1,1.05-.46,5.5,5.5,0,0,1,1.15-.27,4.187,4.187,0,0,1,.63-0.07c0.22-.01.43-0.02,0.64-0.02s0.41,0.01.63,0.02a4.187,4.187,0,0,1,.63.07,6.053,6.053,0,0,1,2.16.8,5.752,5.752,0,0,1,1.71,1.59,4.788,4.788,0,0,1,.67.99,7.634,7.634,0,0,1,.48,1.1c0.04,0.15.07,0.3,0.1,0.46s0.05,0.32.07,0.47c0.02,0.17.04,0.33,0.05,0.49s0.01,0.32.01,0.47a8.964,8.964,0,0,1-.11,1.38,8.524,8.524,0,0,1-.34,1.32,5.711,5.711,0,0,1-1.16,2.03,6.21,6.21,0,0,1-1.86,1.47,4.614,4.614,0,0,1-1.1.42,7.478,7.478,0,0,1-1.15.2,2,2,0,0,1-.24.04,2.32,2.32,0,0,1-.24.02h-0.48c-0.25,0-.48-0.01-0.71-0.03a5.2,5.2,0,0,1-.67-0.11,5.379,5.379,0,0,1-2.2-.78,6.071,6.071,0,0,1-1.72-1.59,5.975,5.975,0,0,1-.69-1.1,6.433,6.433,0,0,1-.47-1.21v-14.35a1.412,1.412,0,0,1,2.28,0m14.86,6.57v7.18a4.3,4.3,0,0,0,.08.82,4.055,4.055,0,0,0,.26.79,3.532,3.532,0,0,0,.46.68,3.1,3.1,0,0,0,.61.53,3.183,3.183,0,0,0,.58.23,2.3,2.3,0,0,0,.57.08c0.12,0.02.23,0.04,0.34,0.06a1.953,1.953,0,0,0,.34.03l0.44-.06,0.41-.06a3.032,3.032,0,0,0,.64-0.28,2.87,2.87,0,0,0,.57-0.39,2.05,2.05,0,0,0,.46-0.52,2.882,2.882,0,0,0,.3-0.64,4.264,4.264,0,0,0,.13-0.62c0.03-.2.05-0.41,0.07-0.62v-7.21a1.356,1.356,0,0,1,2.42,0v8a3.963,3.963,0,0,1-.14.86,4.13,4.13,0,0,1-.31.8,4.3,4.3,0,0,1-.41.72,4.353,4.353,0,0,1-.55.67,5.231,5.231,0,0,1-.67.56,5.95,5.95,0,0,1-.77.45,3.251,3.251,0,0,1-.79.31,4.158,4.158,0,0,1-.87.14,2.978,2.978,0,0,1-.51.07c-0.17.01-.34,0.02-0.5,0.02s-0.34-.01-0.51-0.02a2.413,2.413,0,0,1-.48-0.07,6.933,6.933,0,0,1-.78-0.1,2.562,2.562,0,0,1-.74-0.24,4.2,4.2,0,0,1-.85-0.42,5.869,5.869,0,0,1-.73-0.56c-0.19-.21-0.37-0.43-0.54-0.65a3.68,3.68,0,0,1-.42-0.71,4.062,4.062,0,0,1-.35-0.87,4.115,4.115,0,0,1-.16-0.93v-8.03a1.341,1.341,0,0,1,2.4,0m18.09-.65a2.076,2.076,0,0,1,.91.32,1.934,1.934,0,0,1,.7.72c0.03,0.13.07,0.26,0.09,0.38a0.966,0.966,0,0,1,.02.38,2.34,2.34,0,0,1-.03.38,3.589,3.589,0,0,1-.08.35l-6.43,8.32h6.71a1.339,1.339,0,0,1,0,2.2h-8.41a1.161,1.161,0,0,1-.42-0.2,1.372,1.372,0,0,1-.34-0.34,1.507,1.507,0,0,1-.25-0.42,3.363,3.363,0,0,1-.14-0.48,2.559,2.559,0,0,1,.14-0.87,3.371,3.371,0,0,1,.37-0.79l6.12-7.73h-6.12a1.393,1.393,0,0,1,0-2.22h7.16Z" transform="translate(-4202 -2090.97)"/>
</svg>
