<svg xmlns="http://www.w3.org/2000/svg" width="13" height="35" viewBox="0 0 13 35">
  <defs>
    <style>
      .cls-1 {
        fill: #fff;
        fill-rule: evenodd;
      }
    </style>
  </defs>
  <path id="Forme_626" data-name="Forme 626" class="cls-1" d="M678.18,685.833h0V693.9a5.323,5.323,0,1,0,10.632,0v-8.071a5.323,5.323,0,1,0-10.632,0h0Zm-1.181,0a6.506,6.506,0,1,1,13,0V693.9a6.506,6.506,0,1,1-13,0v-8.071h0Zm5.907-1.862a0.591,0.591,0,1,1,1.181,0v2.479a0.591,0.591,0,1,1-1.181,0v-2.479Zm0.59,24.856,2.536-2.666a0.571,0.571,0,0,1,.835,0,0.644,0.644,0,0,1,0,.879l-2.953,3.105a0.571,0.571,0,0,1-.836,0l-2.953-3.105a0.644,0.644,0,0,1,0-.879,0.571,0.571,0,0,1,.835,0Zm0,3.671,2.536-2.667a0.571,0.571,0,0,1,.835,0,0.643,0.643,0,0,1,0,.878l-2.953,3.106a0.571,0.571,0,0,1-.836,0l-2.953-3.106a0.643,0.643,0,0,1,0-.878,0.571,0.571,0,0,1,.835,0Z" transform="translate(-677 -679)"/>
</svg>
