<svg xmlns="http://www.w3.org/2000/svg" width="193.539" height="192.68" viewBox="0 0 22.098 22">
  <defs>
    <style>
      .cls-1 {
        fill: #fff;
        fill-rule: evenodd;
      }
    </style>
  </defs>
  <path id="Forme_3" data-name="Forme 3" class="cls-1" d="M1008.62,99a5.91,5.91,0,1,1-5.89,5.876A5.883,5.883,0,0,1,1008.62,99Zm0,1.572a4.338,4.338,0,0,0-4.32,4.3A4.325,4.325,0,1,0,1008.62,100.572Zm0,8.746a10.989,10.989,0,0,1,11.05,11.118c0,0.752-1.58.752-1.58,0a9.467,9.467,0,1,0-18.934,0c0.07,0.752-1.578.752-1.578,0A10.985,10.985,0,0,1,1008.62,109.318Z" transform="translate(-997.562 -99)"/>
</svg>
