<svg xmlns="http://www.w3.org/2000/svg" width="191.999" height="182.856" viewBox="0 0 21 20">
  <defs>
    <style>
      .cls-1 {
        fill: #fff;
        fill-rule: evenodd;
      }
    </style>
  </defs>
  <path id="Forme_1" data-name="Forme 1" class="cls-1" d="M1058.81,106.528h17.75a0.045,0.045,0,0,0,.04-0.021,0.064,0.064,0,0,0,.03-0.051v-1.547a0.06,0.06,0,0,0-.03-0.052,0.047,0.047,0,0,0-.04-0.02h-18.13a0.068,0.068,0,0,0-.05.02,0.087,0.087,0,0,0-.02.052v1.547a0.084,0.084,0,0,0,.02.051h0a0.065,0.065,0,0,0,.05.021h0.38Zm13.05-3.1-2.14-4.4a0.712,0.712,0,0,1,.31-0.944,0.67,0.67,0,0,1,.91.315l2.46,5.033h3.16a1.414,1.414,0,0,1,1.02.433,1.5,1.5,0,0,1,.42,1.046v1.547a1.5,1.5,0,0,1-.42,1.046,1.438,1.438,0,0,1-.82.416l-1.54,9.492a0.68,0.68,0,0,1-.67.591v0h-14.11a0.708,0.708,0,0,1-.69-0.642l-1.53-9.445a1.441,1.441,0,0,1-.81-0.416v0a1.5,1.5,0,0,1-.42-1.042v-1.547a1.5,1.5,0,0,1,.42-1.046,1.414,1.414,0,0,1,1.02-.433h3.16l2.45-5.033a0.684,0.684,0,0,1,.92-0.315,0.712,0.712,0,0,1,.31.944l-2.15,4.4h8.74Zm-4.37,4.5h-7.87l1.4,8.658h12.95l1.4-8.658h-7.88Z" transform="translate(-1057 -98)"/>
</svg>
