<svg xmlns="http://www.w3.org/2000/svg" width="188.333" height="187.672" viewBox="0 0 17.656 17.594">
  <defs>
    <style>
      .cls-1 {
        fill: #fff;
        fill-rule: evenodd;
      }
    </style>
  </defs>
  <path id="Forme_2" data-name="Forme 2" class="cls-1" d="M957.407,115.077l-3.3-3.25A7.92,7.92,0,0,0,942.3,101.313a7.884,7.884,0,0,0,0,11.187,7.975,7.975,0,0,0,10.575.586l3.27,3.25a0.848,0.848,0,0,0,.618.264,0.805,0.805,0,0,0,.619-0.264A0.907,0.907,0,0,0,957.407,115.077Zm-3.3-8.17a6.01,6.01,0,0,1-1.823,4.334,6.255,6.255,0,0,1-4.361,1.816,6.083,6.083,0,0,1-4.361-1.816,6.183,6.183,0,0,1-1.825-4.334,6.007,6.007,0,0,1,1.825-4.335,6.2,6.2,0,0,1,4.361-1.816A6.213,6.213,0,0,1,954.106,106.907Z" transform="translate(-939.969 -99)"/>
</svg>
