<svg xmlns="http://www.w3.org/2000/svg" width="12.03" height="12" viewBox="0 0 12.03 12">
  <defs>
    <style>
      .cls-1 {
        fill: #4075e5;
        fill-rule: evenodd;
      }
    </style>
  </defs>
  <path id="Forme_2" data-name="Forme 2" class="cls-1" d="M1427.85,424.966l-2.24-2.217a5.4,5.4,0,0,0-.4-7.171,5.4,5.4,0,0,0-7.63,7.63,5.411,5.411,0,0,0,7.19.4l2.22,2.216a0.576,0.576,0,0,0,.42.18,0.545,0.545,0,0,0,.42-0.18A0.62,0.62,0,0,0,1427.85,424.966Zm-2.24-5.573a4.105,4.105,0,0,1-1.24,2.956,4.232,4.232,0,0,1-2.96,1.238,4.121,4.121,0,0,1-2.97-1.238,4.223,4.223,0,0,1-1.24-2.956,4.107,4.107,0,0,1,1.24-2.957,4.207,4.207,0,0,1,2.97-1.238,4.119,4.119,0,0,1,2.96,1.238A4.189,4.189,0,0,1,1425.61,419.393Z" transform="translate(-1416 -414)"/>
</svg>
