<svg xmlns="http://www.w3.org/2000/svg" width="13" height="15.97" viewBox="0 0 13 15.97">
  <defs>
    <style>
      .cls-1 {
        fill: #4075e5;
        fill-rule: evenodd;
      }
    </style>
  </defs>
  <path id="Forme_824" data-name="Forme 824" class="cls-1" d="M179.085,2456.04a2.47,2.47,0,1,0,2.423,2.47A2.45,2.45,0,0,0,179.085,2456.04Zm0,3.58a1.11,1.11,0,1,1,1.086-1.11A1.1,1.1,0,0,1,179.085,2459.62Zm4.6-5.2a6.425,6.425,0,0,0-9.191,0,6.713,6.713,0,0,0,0,9.37h0l4.595,4.69,4.6-4.68A6.726,6.726,0,0,0,183.681,2454.42Zm-0.819,8.28c-0.05.05-.084,0.08-0.134,0.13l-3.643,3.73-3.66-3.73a5.353,5.353,0,0,1,0-7.44,5.088,5.088,0,0,1,7.3-.13A5.321,5.321,0,0,1,182.862,2462.7Z" transform="translate(-172.594 -2452.5)"/>
</svg>
