<svg xmlns="http://www.w3.org/2000/svg" width="20" height="20" viewBox="0 0 20 20">
  <defs>
    <style>
      .cls-1 {
        fill: #4075e5;
        fill-rule: evenodd;
      }
    </style>
  </defs>
  <path id="Forme_830" data-name="Forme 830" class="cls-1" d="M3097.07,830.927A10,10,0,1,0,3100,838,9.632,9.632,0,0,0,3097.07,830.927ZM3096.4,844.4a9.061,9.061,0,0,1-12,.722q0.06-.6.12-1.579a1.637,1.637,0,0,1,.45-0.805,1.519,1.519,0,0,0,.43-0.821,1.553,1.553,0,0,0-.83-0.965,3.093,3.093,0,0,0-1.16-.583,2.783,2.783,0,0,1-1.08-.52c-0.47-.359-0.79-0.609-0.98-0.749h-0.34a9.987,9.987,0,0,1-.06-1.1,8.718,8.718,0,0,1,2.65-6.4,9.274,9.274,0,0,1,1.54-1.258q-0.1.274-.27,0.73a5.237,5.237,0,0,0-.35,1.329,0.645,0.645,0,0,0,.06.3,1.331,1.331,0,0,0,.26.29,4.818,4.818,0,0,1,.94-0.738c0.19-.113.43-0.251,0.73-0.413a1.191,1.191,0,0,0,.46-0.48,2.159,2.159,0,0,0,.17-0.948,0.723,0.723,0,0,0-.16-0.48,3.491,3.491,0,0,1-.29-0.393,9.013,9.013,0,0,1,3.31-.594c0.13,0,.25,0,0.38.007a1.227,1.227,0,0,0-.4.349,2.817,2.817,0,0,0-.46.913,0.447,0.447,0,0,1,.54.107,0.572,0.572,0,0,1,.17.369,0.738,0.738,0,0,1-.47.714,1.81,1.81,0,0,1-.8.159,1.263,1.263,0,0,0-.39-0.075,0.3,0.3,0,0,0-.32.353,1.4,1.4,0,0,0,.08.337,1.406,1.406,0,0,1,.08.337,0.976,0.976,0,0,1-.24.48,1.258,1.258,0,0,0-.24.393,0.446,0.446,0,0,0,.16.321,0.641,0.641,0,0,0,.44.155,0.5,0.5,0,0,0,.31-0.115,3.179,3.179,0,0,0,.3-0.274,2.658,2.658,0,0,1,1.01-.643,0.629,0.629,0,0,0,.27.33,1.041,1.041,0,0,0,.37.146,1.741,1.741,0,0,1,.11-0.369,0.652,0.652,0,0,1,.28-0.028,1.519,1.519,0,0,1,.81.4,1.115,1.115,0,0,1,.55.754,0.714,0.714,0,0,1-.48.436,3.9,3.9,0,0,1-.98-0.237,3.9,3.9,0,0,0-1.12-.238,4.064,4.064,0,0,0-.77.155,6.639,6.639,0,0,0-.66.194,7.07,7.07,0,0,0-.59.976,4.2,4.2,0,0,0-.48,1.809,1.956,1.956,0,0,0,.63,1.388,1.9,1.9,0,0,0,1.35.635,1.477,1.477,0,0,0,.55-0.119,1.634,1.634,0,0,1,.56-0.119,0.891,0.891,0,0,1,.8.477,1.543,1.543,0,0,1,.24.833,3.481,3.481,0,0,1-.28,1.19,3.279,3.279,0,0,0-.28,1.19,9.016,9.016,0,0,0,.17,1.222,7.3,7.3,0,0,0,.47,1.753,1.528,1.528,0,0,0,.93-0.373,2.353,2.353,0,0,0,.52-0.789c0.17-.442.31-0.782,0.41-1.019a4.671,4.671,0,0,1,.6-1.072c0.04-.055.21-0.242,0.5-0.559q0.48-.512.78-0.881a3.651,3.651,0,0,0,1.02-2.011,2.535,2.535,0,0,0-.76-1.829c-0.29-.275-0.5-0.481-0.65-0.619a3.88,3.88,0,0,1-.58-0.686v-0.4a6.177,6.177,0,0,1,1.48.742c0.65,0.4.98,0.607,0.98,0.607a0.6,0.6,0,0,0,.48-0.234,0.558,0.558,0,0,0,.16-0.362,0.817,0.817,0,0,0-.13-0.5,1.049,1.049,0,0,0-.31-0.265,2.674,2.674,0,0,1-.36-0.274,1.214,1.214,0,0,1-.31-0.512,0.071,0.071,0,0,0,.08-0.079,7.658,7.658,0,0,1,1.26.456c0.2,0.09.51,0.23,0.92,0.421a9.317,9.317,0,0,1,.36,2.622A8.71,8.71,0,0,1,3096.4,844.4Zm-1.78-1.682a2.181,2.181,0,0,0-.16.385c-0.07.19-.15,0.469-0.25,0.837a1.24,1.24,0,0,0,.52-0.516c0.22-.376.33-0.574,0.35-0.6v-0.476c-0.1.077-.18,0.137-0.23,0.182C3094.74,842.627,3094.67,842.688,3094.62,842.722Z" transform="translate(-3080 -828)"/>
</svg>
